<svg xmlns="http://www.w3.org/2000/svg" viewBox="0 0 18.55 16"><defs><style>.cls-1{fill:#fff;}</style></defs><g id="レイヤー_2" data-name="レイヤー 2"><g id="レイヤー_1-2" data-name="レイヤー 1"><path id="パス_910" data-name="パス 910" class="cls-1" d="M13.67,5.88,10,.35A.84.84,0,0,0,9.27,0a.82.82,0,0,0-.7.36L4.88,5.88h-4A.85.85,0,0,0,0,6.73H0A.85.85,0,0,0,0,7l2.15,7.81A1.66,1.66,0,0,0,3.79,16h11a1.69,1.69,0,0,0,1.63-1.23L18.52,7l0-.23a.86.86,0,0,0-.85-.85h-4Zm-6.93,0,2.53-3.7,2.53,3.7Zm2.53,6.75A1.69,1.69,0,1,1,11,10.94h0a1.69,1.69,0,0,1-1.69,1.69Z"/></g></g></svg>