<?xml version="1.0" encoding="utf-8"?>
<!-- Generator: Adobe Illustrator 27.5.0, SVG Export Plug-In . SVG Version: 6.00 Build 0)  -->
<svg version="1.1" id="レイヤー_1" xmlns="http://www.w3.org/2000/svg" xmlns:xlink="http://www.w3.org/1999/xlink" x="0px"
	 y="0px" viewBox="0 0 25 25" style="enable-background:new 0 0 25 25;" xml:space="preserve">
<style type="text/css">
	.st0{fill:#F0A10C;}
</style>
<path class="st0" d="M4.6,24.5h15.8c1,0,2.1-0.2,2.8-0.9s0.9-1.7,0.9-2.7V6.8c0-1-0.2-2-0.9-2.7s-1.8-0.9-2.8-0.9H4.6
	c-1.1,0-2.2,0.3-2.8,0.9S0.9,5.8,0.9,6.9V21c0,1,0.3,2.1,0.9,2.7S3.6,24.5,4.6,24.5z M4.5,22.4c-0.4,0-0.8-0.1-1.1-0.4
	C3.1,21.7,3,21.2,3,20.8V10c0-0.4,0.1-0.8,0.4-1.2c0.3-0.3,0.7-0.4,1.1-0.4h16c0.4,0,0.8,0.1,1.2,0.4c0.3,0.3,0.4,0.7,0.4,1.2v10.8
	c0,0.4-0.1,0.9-0.4,1.2s-0.7,0.4-1.2,0.4H4.5z M10.3,12.6H11c0.1,0,0.3,0,0.4-0.1s0.1-0.3,0.1-0.4v-0.7c0-0.1,0-0.3-0.1-0.4
	c-0.1-0.1-0.3-0.1-0.4-0.1h-0.7c-0.2,0-0.3,0-0.4,0.1s-0.1,0.3-0.1,0.4v0.7c0,0.2,0,0.3,0.1,0.4C10,12.6,10.1,12.6,10.3,12.6
	L10.3,12.6z M14.1,12.6h0.7c0.2,0,0.3,0,0.4-0.1s0.1-0.3,0.1-0.4v-0.7c0-0.2,0-0.3-0.1-0.4c-0.1-0.1-0.3-0.1-0.4-0.1h-0.7
	c-0.1,0-0.3,0-0.4,0.1s-0.1,0.3-0.1,0.4v0.7c0,0.1,0,0.3,0.1,0.4C13.8,12.6,14,12.6,14.1,12.6L14.1,12.6z M17.9,12.6h0.7
	c0.1,0,0.3,0,0.4-0.1s0.1-0.3,0.1-0.4v-0.7c0-0.1,0-0.3-0.1-0.4c-0.1-0.1-0.3-0.1-0.4-0.1h-0.7c-0.2,0-0.3,0-0.4,0.1
	s-0.1,0.3-0.1,0.4v0.7c0,0.1,0,0.3,0.1,0.4C17.6,12.6,17.8,12.6,17.9,12.6L17.9,12.6z M10.3,16.3H11c0.1,0,0.3,0,0.4-0.1
	s0.1-0.3,0.1-0.4v-0.7c0-0.1,0-0.3-0.1-0.4c-0.1-0.1-0.3-0.1-0.4-0.1h-0.7c-0.2,0-0.3,0-0.4,0.1S9.8,15,9.8,15.1v0.7
	c0,0.2,0,0.3,0.1,0.4C10,16.3,10.1,16.3,10.3,16.3L10.3,16.3z M6.5,16.3h0.7c0.1,0,0.3,0,0.4-0.1s0.1-0.3,0.1-0.4v-0.7
	c0-0.1,0-0.3-0.1-0.4c-0.1-0.1-0.3-0.1-0.4-0.1H6.5c-0.2,0-0.3,0-0.4,0.1S6,15,6,15.1v0.7c0,0.2,0,0.3,0.1,0.4
	C6.2,16.3,6.3,16.3,6.5,16.3L6.5,16.3z M6.5,20.1h0.7c0.1,0,0.3,0,0.4-0.1s0.1-0.3,0.1-0.4v-0.7c0-0.1,0-0.3-0.1-0.4
	c-0.1-0.1-0.3-0.1-0.4-0.1H6.5c-0.2,0-0.3,0-0.4,0.1S6,18.8,6,18.9v0.7c0,0.2,0,0.3,0.1,0.4C6.2,20.1,6.3,20.1,6.5,20.1L6.5,20.1z
	 M10.3,20.1H11c0.2,0,0.3,0,0.4-0.1s0.1-0.3,0.1-0.4v-0.7c0-0.2,0-0.3-0.1-0.4c-0.1-0.1-0.3-0.1-0.4-0.1h-0.7c-0.1,0-0.3,0-0.4,0.1
	s-0.1,0.3-0.1,0.4v0.7c0,0.1,0,0.3,0.1,0.4C10,20.1,10.2,20.1,10.3,20.1L10.3,20.1z M14.1,20.1h0.7c0.1,0,0.3,0,0.4-0.1
	s0.1-0.3,0.1-0.4v-0.7c0-0.1,0-0.3-0.1-0.4c-0.1-0.1-0.3-0.1-0.4-0.1h-0.7c-0.2,0-0.3,0-0.4,0.1s-0.1,0.3-0.1,0.4v0.7
	c0,0.1,0,0.3,0.1,0.4C13.8,20.1,14,20.1,14.1,20.1L14.1,20.1z M14.1,16.3h0.7c0.2,0,0.3,0,0.4-0.1s0.1-0.3,0.1-0.4v-0.7
	c0-0.2,0-0.3-0.1-0.4c-0.1-0.1-0.3-0.1-0.4-0.1h-0.7c-0.1,0-0.3,0-0.4,0.1s-0.1,0.3-0.1,0.4v0.7c0,0.1,0,0.3,0.1,0.4
	C13.8,16.3,14,16.3,14.1,16.3L14.1,16.3z M17.9,16.3h0.7c0.1,0,0.3,0,0.4-0.1s0.1-0.3,0.1-0.4v-0.7c0-0.1,0-0.3-0.1-0.4
	c-0.1-0.1-0.3-0.1-0.4-0.1h-0.7c-0.2,0-0.3,0-0.4,0.1s-0.1,0.3-0.1,0.4v0.7c0,0.1,0,0.3,0.1,0.4C17.6,16.3,17.8,16.3,17.9,16.3
	L17.9,16.3z"/>
</svg>
