<svg xmlns="http://www.w3.org/2000/svg" width="22.681" height="22.9" viewBox="0 0 22.681 22.9"><path d="M-11.212-10.474a9.138,9.138,0,0,0,.72,3.619,9.337,9.337,0,0,0,2,2.972,9.356,9.356,0,0,0,2.966,2,9.094,9.094,0,0,0,3.613.72A8.9,8.9,0,0,0,.9-1.6,9.474,9.474,0,0,0,3.351-2.82L8.832,2.686a1.47,1.47,0,0,0,.525.323,1.779,1.779,0,0,0,.6.1,1.51,1.51,0,0,0,.781-.2,1.451,1.451,0,0,0,.537-.549,1.605,1.605,0,0,0,.2-.8,1.562,1.562,0,0,0-.11-.574,1.685,1.685,0,0,0-.317-.513L5.585-4.993A9.014,9.014,0,0,0,6.927-7.538,9.043,9.043,0,0,0,7.4-10.474a9.138,9.138,0,0,0-.72-3.619,9.266,9.266,0,0,0-2-2.966,9.492,9.492,0,0,0-2.966-2,9.058,9.058,0,0,0-3.625-.726,9.028,9.028,0,0,0-3.613.726,9.492,9.492,0,0,0-2.966,2,9.266,9.266,0,0,0-2,2.966A9.138,9.138,0,0,0-11.212-10.474Zm2.222,0a6.942,6.942,0,0,1,.549-2.753,7.052,7.052,0,0,1,1.526-2.258A7.193,7.193,0,0,1-4.657-17a6.9,6.9,0,0,1,2.747-.549A6.929,6.929,0,0,1,.848-17,7.12,7.12,0,0,1,3.1-15.485a7.1,7.1,0,0,1,1.52,2.258,6.942,6.942,0,0,1,.549,2.753A6.942,6.942,0,0,1,4.62-7.721,7.1,7.1,0,0,1,3.1-5.463,7.12,7.12,0,0,1,.848-3.943a6.929,6.929,0,0,1-2.759.549,6.9,6.9,0,0,1-2.747-.549,7.193,7.193,0,0,1-2.258-1.52A7.052,7.052,0,0,1-8.441-7.721,6.942,6.942,0,0,1-8.99-10.474Z" transform="translate(11.212 19.788)" fill="#fff"/></svg>