<?xml version="1.0" encoding="utf-8"?>
<!-- Generator: Adobe Illustrator 27.5.0, SVG Export Plug-In . SVG Version: 6.00 Build 0)  -->
<svg version="1.1" id="レイヤー_1" xmlns="http://www.w3.org/2000/svg" xmlns:xlink="http://www.w3.org/1999/xlink" x="0px"
	 y="0px" viewBox="0 0 25 25" style="enable-background:new 0 0 25 25;" xml:space="preserve">
<style type="text/css">
	.st0{fill:#F0A10C;}
</style>
<g transform="translate(-512.605 228.543)">
	<path class="st0" d="M517.4-204h15.4c0.5,0,1-0.1,1.5-0.4c0.4-0.3,0.6-0.7,0.5-1.2c0-0.8-0.3-1.6-0.7-2.4c-0.5-0.9-1.2-1.7-1.9-2.3
		c-0.9-0.8-2-1.3-3.1-1.7c-1.3-0.5-2.7-0.7-4-0.7c-1.4,0-2.7,0.2-4,0.7c-1.1,0.4-2.2,1-3.1,1.7c-0.8,0.6-1.4,1.4-1.9,2.3
		c-0.4,0.7-0.7,1.5-0.7,2.4c0,0.5,0.2,0.9,0.5,1.2C516.3-204.2,516.9-204,517.4-204z M525.1-214.8c0.8,0,1.6-0.2,2.3-0.7
		c0.7-0.5,1.3-1.1,1.7-1.8c0.4-0.8,0.7-1.7,0.6-2.6c0-0.9-0.2-1.8-0.6-2.5c-0.4-0.7-1-1.3-1.7-1.8c-0.7-0.4-1.5-0.7-2.3-0.7
		c-0.8,0-1.6,0.2-2.3,0.7c-0.7,0.4-1.3,1.1-1.7,1.8c-0.4,0.8-0.7,1.7-0.6,2.5c0,0.9,0.2,1.8,0.6,2.6c0.4,0.7,1,1.4,1.7,1.8
		C523.5-215,524.3-214.8,525.1-214.8z"/>
</g>
</svg>
