<?xml version="1.0" encoding="utf-8"?>
<!-- Generator: Adobe Illustrator 27.5.0, SVG Export Plug-In . SVG Version: 6.00 Build 0)  -->
<svg version="1.1" id="レイヤー_1" xmlns="http://www.w3.org/2000/svg" xmlns:xlink="http://www.w3.org/1999/xlink" x="0px"
	 y="0px" viewBox="0 0 25 25" style="enable-background:new 0 0 25 25;" xml:space="preserve">
<style type="text/css">
	.st0{fill:#F0A10C;}
</style>
<g transform="translate(-413.72 231)">
	<path class="st0" d="M435.1-222.6c0.2-0.5,0.2-0.9,0.2-1.4c0.1-2.3-1.7-4.1-3.9-4.2c-0.5,0-1.1,0.1-1.6,0.4c-0.7-2-2.8-3-4.8-2.4
		c-1.1,0.4-2,1.3-2.4,2.4c-0.5-0.2-1-0.4-1.6-0.4c-2.3,0.1-4,2-3.9,4.2c0,0.5,0.1,1,0.2,1.4c-1.6,0.6-2.8,2.2-2.8,3.9
		c0.1,2.4,2.1,4.3,4.5,4.2c0.8,0,1.7-0.2,2.4-0.7l1.6,1.5v5.5c0,0.9,0.7,1.6,1.6,1.6h3.1c0.9,0,1.6-0.7,1.6-1.6c0,0,0,0,0,0v-5.5
		l1.6-1.5c0.7,0.4,1.6,0.7,2.4,0.7c2.4,0.1,4.4-1.8,4.5-4.2C437.8-220.5,436.7-222,435.1-222.6z"/>
</g>
</svg>
