<svg xmlns="http://www.w3.org/2000/svg" viewBox="0 0 186.15 336.93"><defs><style>.cls-1{fill:#7dbf81;}.cls-2{fill:none;stroke:#b67f60;stroke-width:0.54px;}.cls-2,.cls-9{stroke-linecap:round;}.cls-3{fill:#88c875;}.cls-4{fill:#96ce85;}.cls-5{fill:#fae08d;}.cls-6{fill:#ffedb2;}.cls-7{fill:#a06f51;}.cls-8{fill:#b67f60;}.cls-10,.cls-9{fill:#fff;}.cls-9{stroke:#fff;stroke-linejoin:round;stroke-width:0.25px;}</style></defs><g id="レイヤー_2" data-name="レイヤー 2"><g id="Data"><path class="cls-1" d="M186.15,61.76C186.15,27.71,152,0,110.05,0S33.94,27.71,33.94,61.76c0,30.53,27.08,56.1,63.65,60.93,2.48.53,5.85,1.63,6.71,3.75.76,1.93.5,4.94.24,6.88l-1.08,6.52c-.34,1.92-1.53,7.52,6.59,4.1s43.83-25.81,59.79-44.18h0c11-12.1,16.31-24.37,16.31-38"/><path class="cls-2" d="M41.68,170.88c-2-7.87-4.26-25.57,2.13-33.4"/><path class="cls-3" d="M40,163.25c-8,1.31-25.29,10.16-28,34.64-1.18,10.62-3.39,21.68-5.6,32.7C2.22,251.3-1.89,271.85.93,289.07c4.33,26.3,32.61,52.31,67.1,47.21h0l.18,0,.18,0h0C102.7,330,121.17,296.33,116.85,270,114,252.8,103.55,234.65,93,216.36c-5.61-9.73-11.25-19.51-15.77-29.2C66.82,164.84,47.93,161.94,40,163.25Z"/><path class="cls-4" d="M38.69,163.51c-8.4,2-24.15,11.14-26.73,34.38-1.18,10.62-3.39,21.68-5.6,32.7C2.22,251.3-1.89,271.85.93,289.07c3.33,20.22,20.81,40.26,44.38,46.14a59.55,59.55,0,0,0,6.44-.6l.18,0,.18,0c34.31-6.21,52.79-39.9,48.46-66.2-2.82-17.22-13.3-35.38-23.85-53.67C71.11,205,65.47,195.18,61,185.49,55.08,172.88,46.49,166.46,38.69,163.51Z"/><path class="cls-1" d="M144.64,167.43c-7.55-2.85-27-3.84-41.57,16C96.73,192,89.28,200.51,81.86,209c-13.94,15.86-27.77,31.6-33.93,47.93-9.41,24.94,2.08,61.6,34.49,74.43h0l.17.06.17.07h0c32.81,11.78,65.65-8.15,75.06-33.09C164,282,164,261.06,164,239.94c0-11.23,0-22.51.94-33.17C167.1,182.24,152.19,170.28,144.64,167.43Z"/><path class="cls-5" d="M141.67,175.25c-6.83-2.58-24.4-3.48-37.6,14.47-5.74,7.79-12.47,15.45-19.18,23.09-12.61,14.34-25.13,28.58-30.71,43.36-8.51,22.55,1.89,55.72,31.21,67.33h0l.15.06.16.06h0c29.69,10.66,59.39-7.37,67.91-29.93,5.57-14.78,5.58-33.74,5.59-52.84,0-10.16,0-20.37.85-30C162,188.65,148.51,177.83,141.67,175.25Z"/><path class="cls-6" d="M137.52,186.19c-5.82-2.19-20.81-3-32.06,12.33-4.88,6.64-10.63,13.18-16.35,19.69-10.74,12.22-21.41,24.36-26.17,36.95-7.25,19.23,1.61,47.5,26.61,57.4h0l.13.05.13.05h0c25.3,9.08,50.63-6.29,57.88-25.52,4.75-12.6,4.76-28.76,4.76-45,0-8.66,0-17.36.73-25.57C154.84,197.61,143.34,188.39,137.52,186.19Z"/><path class="cls-7" d="M132.18,280.09A28.43,28.43,0,0,1,79,260c5.55-14.69,25.69-32,40.37-26.47S137.72,265.4,132.18,280.09Z"/><path class="cls-8" d="M83.82,288.36a28.43,28.43,0,0,0,35.25-17c4.12-10.92,3.15-28.25-3.65-38.71C101.28,231,84.05,246.61,79,260A28.44,28.44,0,0,0,83.82,288.36Z"/><path class="cls-9" d="M70.4,61.67c-2.4,0-3.72-1.22-3.72-3.47a6.16,6.16,0,0,1,1.12-3.67l11.74-19.8c1.27-2.14,2.44-3,4.69-3,2.86,0,4,1.48,4,4.49V56.93h3.06c1.79,0,2.71.81,2.71,2.34s-.92,2.4-2.71,2.4H88.21v6a2.62,2.62,0,0,1-2.91,2.86,2.53,2.53,0,0,1-2.75-2.86v-6ZM82.55,47.54c0-3.42.15-6.74.4-10.16H82.6a96.71,96.71,0,0,1-4.54,9L72,56.93H82.55Z"/><path class="cls-9" d="M123.37,51.26c0,14.14-5.16,19.65-12.91,19.65S97.65,65.4,97.65,51.26s5-19.64,12.81-19.64S123.37,37.13,123.37,51.26Zm-19.7,0c0,11,2.55,14.55,6.79,14.55s6.89-3.58,6.89-14.55-2.61-14.54-6.89-14.54S103.67,40.29,103.67,51.26Z"/><path class="cls-9" d="M130.82,61.67c-2.4,0-3.73-1.22-3.73-3.47a6.23,6.23,0,0,1,1.12-3.67L140,34.73c1.28-2.14,2.45-3,4.69-3,2.86,0,4,1.48,4,4.49V56.93h3.07c1.78,0,2.7.81,2.7,2.34s-.92,2.4-2.7,2.4h-3.07v6a2.62,2.62,0,0,1-2.9,2.86A2.53,2.53,0,0,1,143,67.69v-6ZM143,47.54c0-3.42.15-6.74.41-10.16H143a92.05,92.05,0,0,1-4.54,9l-6,10.51H143Z"/><path class="cls-10" d="M62.86,82.79a.73.73,0,0,1,.8-.71.7.7,0,0,1,.76.71v.38a2.4,2.4,0,0,1,2-1.16c1.81,0,3.07,1.34,3.07,3.69s-1.47,3.91-3.4,3.91a2.28,2.28,0,0,1-1.59-.8v2.75a.7.7,0,0,1-.8.73.71.71,0,0,1-.81-.73Zm1.61,4.64a1.89,1.89,0,0,0,1.57.92c1,0,1.81-.95,1.81-2.59s-.65-2.45-1.6-2.45a1.9,1.9,0,0,0-1.78,2Z"/><path class="cls-10" d="M74.81,84.39a1,1,0,0,0-1.17-1.09,2.23,2.23,0,0,0-1.51.61.62.62,0,0,1-.39.16.74.74,0,0,1-.74-.7.6.6,0,0,1,.18-.42A3.81,3.81,0,0,1,73.7,82c1.67,0,2.65.81,2.65,2.36v2.55c0,1,.17,1.25.49,1.46a.53.53,0,0,1,.29.49.6.6,0,0,1-.6.67,1.42,1.42,0,0,1-.65-.14,1.35,1.35,0,0,1-.74-.78,2.34,2.34,0,0,1-2.13,1c-1.55,0-2.43-.85-2.43-2.14a2.29,2.29,0,0,1,1.91-2.34,8.84,8.84,0,0,1,2.32-.28Zm0,1.58a5.13,5.13,0,0,0-1.78.27,1.17,1.17,0,0,0-.93,1.1c0,.65.34,1.07,1.18,1.07a1.51,1.51,0,0,0,1.53-1.57Z"/><path class="cls-10" d="M82.32,88c1.63.21,2.33.86,2.33,2.11s-1.25,2.21-3.42,2.21-3.42-.77-3.42-2.07A1.77,1.77,0,0,1,79,88.62a1,1,0,0,1-.66-1.05c0-.42.39-.87,1.12-1.16a2.23,2.23,0,0,1-1.18-2c0-1.56,1.28-2.38,2.83-2.38a3.45,3.45,0,0,1,1.39.26,1.92,1.92,0,0,1,1.72-.77c.32,0,.56.27.56.69a.6.6,0,0,1-.56.67,1.51,1.51,0,0,0-.75.11A2.25,2.25,0,0,1,84,84.39c0,1.55-1.16,2.39-2.83,2.39a4,4,0,0,1-.7,0c-.47.18-.61.42-.61.6s.16.35.73.42Zm-1.93,1.08a2.06,2.06,0,0,1-.32-.07,1.24,1.24,0,0,0-.8,1.16c0,.64.7,1,2,1s1.93-.4,1.93-1.06c0-.49-.29-.76-1.3-.89Zm-.62-4.66a1.23,1.23,0,0,0,1.36,1.27,1.25,1.25,0,1,0-1.36-1.27Z"/><path class="cls-10" d="M87.08,86.25a2,2,0,0,0,1.85,2.07,2.34,2.34,0,0,0,1.64-.54.7.7,0,0,1,.43-.17.65.65,0,0,1,.68.64.59.59,0,0,1-.2.49,4,4,0,0,1-2.55.86c-2,0-3.36-1.39-3.36-3.81S87,82,88.83,82a3,3,0,0,1,2.94,3,1.09,1.09,0,0,1-1.19,1.23ZM90,85.09a.31.31,0,0,0,.32-.35,1.51,1.51,0,0,0-1.48-1.49,1.75,1.75,0,0,0-1.69,1.84Z"/><path class="cls-10" d="M98.53,83.48a2.11,2.11,0,0,1,2-1.47,2.18,2.18,0,0,1,1.78.64A3.12,3.12,0,0,1,103,85v2.12a6.65,6.65,0,0,0,.15,1.54,1,1,0,0,1,0,.24c0,.35-.37.61-.91.61a.66.66,0,0,1-.73-.5,6.82,6.82,0,0,1-.15-1.75v-2c0-1.05-.12-1.39-.27-1.57a.9.9,0,0,0-.77-.35c-1,0-1.71.84-1.71,2.29v3.18a.71.71,0,0,1-.8.73c-.5,0-.81-.26-.81-.73v-6a.73.73,0,0,1,.8-.71.69.69,0,0,1,.75.71Z"/><path class="cls-10" d="M104.57,85.79c0-2.37,1.4-3.78,3.32-3.78s3.32,1.41,3.32,3.78-1.38,3.82-3.32,3.82S104.57,88.17,104.57,85.79Zm5,0c0-1.63-.61-2.51-1.71-2.51s-1.71.88-1.71,2.51.61,2.55,1.71,2.55S109.6,87.43,109.6,85.79Z"/><path class="cls-10" d="M115,87.34c0,.69.3,1,.76,1a2.57,2.57,0,0,0,.52-.07,1.57,1.57,0,0,1,.44-.09c.27,0,.5.24.5.66a.52.52,0,0,1-.37.53,4.06,4.06,0,0,1-1.32.21c-1.47,0-2.14-.63-2.14-2.32V83.51h-.71a.66.66,0,1,1,0-1.32h.71V80.3a.81.81,0,0,1,1.61,0v1.89h1.39a.66.66,0,1,1,0,1.32H115Z"/><path class="cls-10" d="M125.71,82.19a.66.66,0,1,1,0,1.32h-1.33v5.3a.71.71,0,0,1-.8.73c-.5,0-.81-.26-.81-.73v-5.3h-.83a.66.66,0,1,1,0-1.32h.83v-1a2.32,2.32,0,0,1,2.46-2.57,3.54,3.54,0,0,1,.69.06.6.6,0,0,1,.49.66.63.63,0,0,1-.52.69c-.15,0-.38,0-.6,0-.62,0-.91.37-.91,1.18v1Z"/><path class="cls-10" d="M127.2,85.79c0-2.37,1.41-3.78,3.32-3.78s3.32,1.41,3.32,3.78-1.37,3.82-3.32,3.82S127.2,88.17,127.2,85.79Zm5,0c0-1.63-.6-2.51-1.71-2.51s-1.7.88-1.7,2.51.61,2.55,1.7,2.55S132.23,87.43,132.23,85.79Z"/><path class="cls-10" d="M135.44,82.8a.7.7,0,0,1,.79-.72c.51,0,.82.26.82.72v3.56c0,1,.11,1.38.26,1.56a1,1,0,0,0,.79.36c1.05,0,1.75-.67,1.75-2.15V82.8a.71.71,0,0,1,.8-.72c.5,0,.81.26.81.72v3a12.78,12.78,0,0,0,.2,2.64,3.3,3.3,0,0,1,.07.5c0,.37-.35.58-.87.58a.63.63,0,0,1-.65-.49,5.23,5.23,0,0,1-.21-.79,2.32,2.32,0,0,1-2.13,1.33,2.2,2.2,0,0,1-1.79-.64,3.13,3.13,0,0,1-.64-2.38Z"/><path class="cls-10" d="M145.1,83.48a2.11,2.11,0,0,1,2-1.47,2.19,2.19,0,0,1,1.78.64,3.13,3.13,0,0,1,.65,2.38v2.12a6.62,6.62,0,0,0,.16,1.54,2,2,0,0,1,0,.24c0,.35-.36.61-.91.61a.66.66,0,0,1-.73-.5,7.3,7.3,0,0,1-.15-1.75v-2c0-1.05-.11-1.39-.27-1.57a.9.9,0,0,0-.77-.35c-1,0-1.71.84-1.71,2.29v3.18a.71.71,0,0,1-.8.73c-.5,0-.81-.26-.81-.73v-6a.73.73,0,0,1,.8-.71.7.7,0,0,1,.76.71Z"/><path class="cls-10" d="M157.73,85.84a13.76,13.76,0,0,0,.19,2.64,2.37,2.37,0,0,1,.07.5c0,.35-.36.58-.86.58a.62.62,0,0,1-.65-.49,7.3,7.3,0,0,1-.21-.76,2.08,2.08,0,0,1-1.92,1.3c-1.94,0-3.22-1.38-3.22-3.81S152.55,82,154.39,82a2.37,2.37,0,0,1,1.73.81V79.37a.81.81,0,0,1,1.61,0Zm-1.61-1.56a1.92,1.92,0,0,0-1.61-1c-1,0-1.77.87-1.77,2.49s.7,2.55,1.74,2.55a1.85,1.85,0,0,0,1.64-2.06Z"/></g></g></svg>