<svg xmlns="http://www.w3.org/2000/svg" viewBox="0 0 210.86 310.8"><defs><style>.cls-1{fill:#7dbf81;}.cls-2{fill:#7dbf80;}.cls-3{fill:#97cc84;}.cls-4{fill:#97cd82;}.cls-5{fill:#b3e5a3;}.cls-6{fill:#dd4655;}.cls-7{fill:#e6646e;}.cls-8{fill:#ffbf6d;}.cls-9{fill:#ffc67d;}.cls-10{fill:#fff;}</style></defs><g id="レイヤー_2" data-name="レイヤー 2"><g id="Data"><path class="cls-1" d="M210.86,61.76c0-34-34.14-61.76-76.1-61.76S58.65,27.71,58.65,61.76c0,30.53,27.08,56.1,63.65,60.93,2.48.53,5.85,1.63,6.71,3.75.76,1.93.5,4.94.24,6.88l-1.08,6.52c-.34,1.92-1.53,7.52,6.59,4.1s43.83-25.81,59.79-44.18h0c11-12.1,16.31-24.37,16.31-38"/><path class="cls-1" d="M52.38,195.1c-2.58,6.75-16.39,7.74-30.86,2.21S0,175.08,0,175.08s16.4-7.74,30.86-2.21S55,188.35,52.38,195.1Z"/><path class="cls-2" d="M75.25,186.92c6.27,3.59,17.59-4.41,25.27-17.85s2.54-30.84,2.54-30.84-17.58,4.41-25.26,17.86S69,183.34,75.25,186.92Z"/><path class="cls-3" d="M56.64,188.35c-4.91,5.3-18.1,1.06-29.46-9.46s-11.67-28.66-11.67-28.66,18.1-1.06,29.46,9.47S61.55,183.05,56.64,188.35Z"/><path class="cls-4" d="M67.68,184.4c7.16,1,14.67-10.65,16.78-26s-9.14-29.56-9.14-29.56-14.67,10.65-16.78,26S60.52,183.42,67.68,184.4Z"/><path class="cls-5" d="M61.76,187.6c-6.89,2.18-16.26-8-20.92-22.8s4-30.68,4-30.68,16.26,8,20.92,22.81S68.65,185.43,61.76,187.6Z"/><path class="cls-6" d="M138.45,203.85c12.59,35.21,1.61,92.28-32.72,104.56s-79-24.9-91.6-60.11c-9-25,.45-58.83,43.56-74.24S129.5,178.81,138.45,203.85Z"/><path class="cls-7" d="M86.39,309.37c34.33-12.28,45.31-69.35,32.72-104.56-6.28-17.55-22.26-32.71-46.1-34.89a94.75,94.75,0,0,0-15.32,4.14C14.58,189.47,5.17,223.27,14.13,248.3c10,28,40.4,57.32,69.69,61.89C84.68,310,85.54,309.67,86.39,309.37Z"/><path class="cls-8" d="M69.37,206.74c2.59-.93,2.07-9,1.15-11.55a5,5,0,1,0-9.36,3.34C62.09,201.12,66.79,207.66,69.37,206.74ZM42.18,227.68c2.59-.92,2.07-9,1.15-11.55A5,5,0,0,0,34,219.48C34.9,222.06,39.6,228.61,42.18,227.68Zm-8.82,15.39c.93,2.58,1.44,10.62-1.15,11.55S24.93,249,24,246.41a5,5,0,1,1,9.36-3.34Zm30,39.61c2.58-.92,2.07-9,1.14-11.55a5,5,0,0,0-9.35,3.35C56.07,277.06,60.77,283.61,63.36,282.68Zm35.81-7.36c.93,2.59,1.44,10.63-1.14,11.55s-7.29-5.62-8.22-8.2a5,5,0,1,1,9.36-3.35Zm23.68-13.91c2.58-.92,2.07-9,1.14-11.55a5,5,0,1,0-9.35,3.35C115.56,255.79,120.26,262.34,122.85,261.41Zm-54.16-25c.93,2.59,1.44,10.63-1.14,11.55s-7.29-5.62-8.21-8.2a5,5,0,0,1,9.35-3.35Zm29.6.56c2.59-.92,2.07-9,1.15-11.55a5,5,0,1,0-9.36,3.35C91,231.4,95.71,237.94,98.29,237Zm32-28.61c.92,2.59,1.44,10.63-1.15,11.55s-7.28-5.62-8.21-8.2a5,5,0,0,1,9.36-3.35ZM105,205.22c2.59-.93,2.08-9,1.15-11.55A5,5,0,1,0,96.8,197C97.73,199.6,102.43,206.14,105,205.22Z"/><path class="cls-9" d="M120.65,209.65a5,5,0,0,0,.27,2.11,10.22,10.22,0,0,0,.63,1.35C121.27,211.94,121,210.78,120.65,209.65Z"/><path class="cls-9" d="M123.49,248.83a5,5,0,0,0-8.85,4.38c.77,2.16,4.18,7.08,6.78,8.1A112.76,112.76,0,0,0,123.49,248.83Z"/><path class="cls-9" d="M70.52,195.19c.92,2.58,1.44,10.62-1.15,11.55s-7.28-5.62-8.21-8.21a5,5,0,1,1,9.36-3.34Z"/><path class="cls-9" d="M43.33,216.13c.92,2.59,1.44,10.63-1.15,11.55s-7.28-5.62-8.21-8.2a5,5,0,0,1,9.36-3.35Z"/><path class="cls-9" d="M32.21,254.62c2.59-.93,2.08-9,1.15-11.55A5,5,0,1,0,24,246.41C24.93,249,29.63,255.54,32.21,254.62Z"/><path class="cls-9" d="M64.5,271.13c.93,2.59,1.44,10.63-1.14,11.55s-7.29-5.62-8.21-8.2a5,5,0,0,1,9.35-3.35Z"/><path class="cls-9" d="M98,286.87c2.58-.92,2.07-9,1.14-11.55a5,5,0,1,0-9.36,3.35C90.74,281.25,95.44,287.8,98,286.87Z"/><path class="cls-9" d="M67.55,248c2.58-.92,2.07-9,1.14-11.55a5,5,0,0,0-9.35,3.35C60.26,242.39,65,248.94,67.55,248Z"/><path class="cls-9" d="M99.44,225.47c.92,2.58,1.44,10.63-1.15,11.55s-7.28-5.62-8.21-8.2a5,5,0,1,1,9.36-3.35Z"/><path class="cls-9" d="M106.16,193.67c.93,2.58,1.44,10.62-1.15,11.55S97.73,199.6,96.8,197a5,5,0,1,1,9.36-3.34Z"/><path class="cls-10" d="M79.1,47.55h3.23a.71.71,0,0,0,.67-.78.7.7,0,0,0-.67-.78H79.1a.7.7,0,0,0-.66.78A.71.71,0,0,0,79.1,47.55Z"/><path class="cls-10" d="M89.85,54.63a.8.8,0,0,0-.85.74c-.07.83-.22,1.09-1.63,1.09s-1.27-.11-1.27-.35v-4c0-.3.07-.37.39-.37H88.1c1.26,0,1.79-.46,1.79-1.55V47.72c0-1.1-.58-1.64-1.79-1.64H84.84a.75.75,0,0,0-.7.83.74.74,0,0,0,.7.82h2.91c.36,0,.37.05.37.3V49.8c0,.27,0,.32-.37.32H86.2c-1.28,0-1.88.52-1.88,1.65v4.52c0,1.4.66,1.82,2.82,1.82,2.75,0,3.46-.51,3.62-2.62a.71.71,0,0,0-.18-.56A1,1,0,0,0,89.85,54.63Z"/><path class="cls-10" d="M84,48.8a.75.75,0,0,0-.7-.83H78.13a.84.84,0,0,0,0,1.66H83.3A.75.75,0,0,0,84,48.8Z"/><path class="cls-10" d="M79.1,51.61h3.23a.71.71,0,0,0,.67-.78.7.7,0,0,0-.67-.78H79.1a.7.7,0,0,0-.66.78A.71.71,0,0,0,79.1,51.61Z"/><path class="cls-10" d="M78.37,56.76c0,1,.48,1.45,1.62,1.45h1.62c1,0,1.59-.26,1.6-1.45V55.47c0-1-.48-1.46-1.61-1.46H80c-1.14,0-1.62.44-1.62,1.46Zm1.68-.28v-.73c0-.19,0-.23.25-.23h1c.27,0,.27,0,.27.23v.73c0,.18,0,.22-.27.22h-1C80.07,56.7,80.05,56.67,80.05,56.48Z"/><path class="cls-10" d="M79.1,53.6h3.23a.71.71,0,0,0,.67-.78.7.7,0,0,0-.67-.78H79.1a.7.7,0,0,0-.66.78A.71.71,0,0,0,79.1,53.6Z"/><path class="cls-10" d="M104,53.42h-1v-.28c0-1-.52-1.41-2-1.41H98.85v-.28h2.31c.9,0,1.39-.43,1.39-1.21v-.77c0-.77-.49-1.2-1.39-1.2H98.85V48h4.84a.76.76,0,0,0,0-1.51H98.85v-.59a.77.77,0,0,0-.85-.72.75.75,0,0,0-.83.71v.6H92.53a.71.71,0,0,0-.68.74.74.74,0,0,0,.69.77h4.63v.3H95c-.89,0-1.39.43-1.39,1.2v.78c0,.53.26,1.18,1.39,1.2h2.14v.28H93.38a.69.69,0,0,0,0,1.37h3.79v.32h-5a.72.72,0,0,0,0,1.43h5v.34H93.38a.69.69,0,0,0,0,1.37h3.79v.34c0,.2,0,.24-.25.24a2.72,2.72,0,0,1-.55-.06.85.85,0,0,0-.71.17.87.87,0,0,0-.29.66.81.81,0,0,0,.68.81,6.54,6.54,0,0,0,1.08.08c1.17,0,1.72-.54,1.72-1.69v-.55H101c1.51,0,2-.36,2-1.41v-.3h1a.72.72,0,0,0,0-1.43Zm-5.14,0V53.1h2c.47,0,.47,0,.47.2v.12Zm2.5,1.43V55c0,.18,0,.2-.47.2h-2v-.34Zm-2.5-4.7v-.58h1.84c.24,0,.24,0,.24.15V50c0,.11,0,.16-.24.16ZM95.27,50v-.27c0-.11,0-.15.23-.15h1.67v.58H95.5C95.27,50.15,95.27,50.12,95.27,50Z"/><path class="cls-10" d="M116.48,48.24a.67.67,0,0,0,.56.32.7.7,0,0,0,.69-.68.68.68,0,0,0-.15-.45,7.39,7.39,0,0,0-1.11-1.25A.74.74,0,0,0,116,46a.7.7,0,0,0-.71.66.69.69,0,0,0,.17.41A10.15,10.15,0,0,1,116.48,48.24Z"/><path class="cls-10" d="M107.9,57.22h0a26.21,26.21,0,0,0,2.35-6.27c.34,0,.65,0,.94,0,.54,0,.79.21.79,1.47a11.17,11.17,0,0,1-.36,3c-.24.8-.45.89-.86.89a4.29,4.29,0,0,1-.65-.05H110a.83.83,0,0,0-.67.19.91.91,0,0,0-.3.69.88.88,0,0,0,.8.88,5.9,5.9,0,0,0,1,.07c1.46,0,2.16-.61,2.61-2.27a12.54,12.54,0,0,0,.38-3.38c0-2.26-.72-3.14-2.57-3.14h-.61c.15-.75.26-1.48.34-2.17a.8.8,0,0,0-.19-.64,1,1,0,0,0-.72-.3.86.86,0,0,0-.89.77c-.09.79-.22,1.63-.39,2.48-.67.08-1.43.17-2.15.31a.86.86,0,0,0-.73.86.89.89,0,0,0,.31.67.83.83,0,0,0,.7.15c.5-.11,1-.19,1.47-.26a23.73,23.73,0,0,1-2.08,5.27,1,1,0,0,0-.15.5.86.86,0,0,0,.9.82A1,1,0,0,0,107.9,57.22Z"/><path class="cls-10" d="M118.08,51.43a12.79,12.79,0,0,0-2.26-3.1,1,1,0,0,0-.73-.3.9.9,0,0,0-.93.83.93.93,0,0,0,.25.59,13.07,13.07,0,0,1,2,2.85,1,1,0,0,0,.89.6.92.92,0,0,0,.93-.93,1.26,1.26,0,0,0-.12-.54Z"/><path class="cls-10" d="M117.88,45.09a.73.73,0,0,0-1.22.45.6.6,0,0,0,.19.42c.28.29.7.73,1,1.15a.72.72,0,0,0,.59.3.67.67,0,0,0,.69-.65.83.83,0,0,0-.18-.5A7.5,7.5,0,0,0,117.88,45.09Z"/><path class="cls-10" d="M86.82,70.33a.19.19,0,0,1,0-.08A1,1,0,0,1,86.9,70v0a1,1,0,0,0,0-.17.78.78,0,0,0-.85-.74.81.81,0,0,0-.82.6c0,.16-.08.31-.13.47a9.16,9.16,0,0,0-1.83.19c0-.2,0-.41,0-.61s0-.41,0-.62c1.3-.11,2.33-.24,3.14-.38a.84.84,0,0,0,.72-.83.82.82,0,0,0-.29-.63.85.85,0,0,0-.74-.18c-.76.14-1.69.26-2.63.34q.09-.6.18-1.23a.7.7,0,0,0-.15-.58.94.94,0,0,0-.7-.29A.85.85,0,0,0,82,66c-.08.52-.14,1-.2,1.51-.57,0-1.19,0-1.83,0a.78.78,0,0,0-.81.82.79.79,0,0,0,.81.84l1.67,0c-.06.61-.09,1.16-.1,1.66-2.44,1.14-3.31,3-3.31,4.23a2,2,0,0,0,2.1,2.14,3.4,3.4,0,0,0,1.7-.42h0c0,.07,0,.13,0,.19a.79.79,0,0,0,.8.59.86.86,0,0,0,.91-.81,1,1,0,0,0,0-.21c-.06-.25-.12-.51-.16-.76a10.23,10.23,0,0,0,2.68-4A2.27,2.27,0,0,1,88,74c0,1.21-.79,2-2.43,2.54a.89.89,0,0,0-.69.85.87.87,0,0,0,.87.89l.25,0c2.4-.59,3.83-2.18,3.83-4.27A3.77,3.77,0,0,0,86.82,70.33Zm-2.24,1.38a9,9,0,0,1-1.25,2.1c-.06-.63-.09-1.22-.09-1.73v-.14A7.21,7.21,0,0,1,84.58,71.71Zm-3,1a22.31,22.31,0,0,0,.2,2.43,2.37,2.37,0,0,1-1.28.44c-.39,0-.45-.13-.47-.53A3.06,3.06,0,0,1,81.55,72.68Z"/><path class="cls-10" d="M100.35,66a1,1,0,0,0-.77.31.77.77,0,0,0-.19.63,35,35,0,0,1,.28,4.36,6.37,6.37,0,0,1-2.34,5.3,1.05,1.05,0,0,0-.41.8.93.93,0,0,0,.91.91,1.09,1.09,0,0,0,.66-.25,8,8,0,0,0,3.11-6.76,33.9,33.9,0,0,0-.3-4.53A.9.9,0,0,0,100.35,66Z"/><path class="cls-10" d="M97.62,71.13a.72.72,0,0,0-.76-.69.77.77,0,0,0-.72.53c-.06.2-.12.37-.18.52,0-.16,0-.33,0-.53a19,19,0,0,1,.52-3.72v0a.88.88,0,0,0,0-.16.81.81,0,0,0-.9-.76.93.93,0,0,0-.92.67,20.27,20.27,0,0,0-.52,4.15,9.52,9.52,0,0,0,.34,2.44,1,1,0,0,0,1,.76,1.26,1.26,0,0,0,1.07-.63,11.78,11.78,0,0,0,1-2.34A1.62,1.62,0,0,0,97.62,71.13Z"/><path class="cls-10" d="M116.63,75.31a12.61,12.61,0,0,0-3.47-1.52c0-.54-.09-1.09-.12-1.64.76,0,1.72-.11,2.6-.23a.86.86,0,0,0,.8-.86.84.84,0,0,0-.27-.63.89.89,0,0,0-.73-.21c-.68.08-1.48.15-2.5.21,0-.4,0-.8,0-1.21,1.22,0,2.21,0,3,0a.8.8,0,0,0,.84-.84.84.84,0,0,0-.84-.88c-1,0-2.08,0-3.07,0V66.22c0-1-1.8-1-1.8,0v1.29c-1.1,0-2.21.06-3.22.12a.82.82,0,0,0-.82.86.93.93,0,0,0,.26.65.83.83,0,0,0,.57.22h0c1.09,0,2.19-.08,3.21-.11,0,.39,0,.82,0,1.25h-.62c-.71,0-1.42,0-2-.1a.82.82,0,0,0-.65.19.94.94,0,0,0-.28.68.84.84,0,0,0,.78.86,20.29,20.29,0,0,0,2.2.09h.68c0,.33,0,.66.07,1l0,.24a9.21,9.21,0,0,0-1,0c-2.32,0-3.14,1.17-3.14,2.28,0,1.38,1.17,2.28,3,2.28s3-.87,3.07-2.28a12.75,12.75,0,0,1,2.4,1.27,1,1,0,0,0,.54.17,1,1,0,0,0,1-1A1,1,0,0,0,116.63,75.31Zm-6.28-.25a5.61,5.61,0,0,1,1.13.11v.2c0,.56-.48.9-1.28.9s-1.14-.22-1.14-.58C109.06,75.54,109.06,75.06,110.35,75.06Z"/><path class="cls-10" d="M131.83,68.88l-2.27.13V66.83a.9.9,0,0,0-1.8,0v2.29l-1.15.07-2.35.16v-2c0-1.05-1.82-1.05-1.82,0v2.11c-.35,0-.71.06-1.06.09l-1.18.1a.89.89,0,0,0-.83.92.94.94,0,0,0,.28.68.83.83,0,0,0,.66.19l2.13-.19h0c0,1.36,0,2.43.09,3.47.1,2,1.19,2.89,3.51,2.89a18.26,18.26,0,0,0,3.89-.34.93.93,0,0,0,.82-.91.87.87,0,0,0-.89-.89.85.85,0,0,0-.23,0,17.67,17.67,0,0,1-3.58.33c-1.13,0-1.64-.39-1.71-1.31s-.08-2-.08-3.31v-.11l3.49-.25a9.44,9.44,0,0,1-.12,1.43c-.07.33-.18.39-.41.39a2.84,2.84,0,0,1-.61-.07.81.81,0,0,0-.69.17.91.91,0,0,0-.3.69.86.86,0,0,0,.69.87,4.82,4.82,0,0,0,1,.1c1.26,0,1.84-.53,2.09-1.87a13,13,0,0,0,.15-1.82l1.15-.07,1.25-.07a.86.86,0,0,0,.84-.86.88.88,0,0,0-.95-.89Z"/><path class="cls-10" d="M145.17,73.54a.93.93,0,0,0-.88.61c-.45,1.19-.94,1.74-1.53,1.74-.43,0-.75-.12-.82-1.62-.09-2.13-.77-3.07-2.21-3.07a2.52,2.52,0,0,0-1,.21l2.17-4A.94.94,0,0,0,141,67a1,1,0,0,0-1-.86.93.93,0,0,0-.82.49c-1.57,2.92-3.38,6.75-4.63,9.76a1.05,1.05,0,0,0-.08.36,1,1,0,0,0,1.82.31c.31-.67.71-1.52,1-2.16.64-1.34,1.36-2,2.07-2,.45,0,.66.16.72,1.56.09,2.28.89,3.3,2.58,3.3s2.68-1,3.4-2.92a.81.81,0,0,0,.08-.38A.92.92,0,0,0,145.17,73.54Z"/><path class="cls-10" d="M159.32,69.57a.73.73,0,0,0-1.22.45.6.6,0,0,0,.19.42,15.1,15.1,0,0,1,1,1.15.72.72,0,0,0,.59.3.66.66,0,0,0,.68-.65.84.84,0,0,0-.17-.5A7.5,7.5,0,0,0,159.32,69.57Z"/><path class="cls-10" d="M157.16,75.86c-1.91-.23-2.92-1.14-2.92-2.62,0-1,.26-2.6,2.58-3.93a5,5,0,0,1,1.5-.54.88.88,0,0,0,.75-.88.85.85,0,0,0-.28-.64.83.83,0,0,0-.7-.23c-3,.28-6.64.68-9.44,1a.88.88,0,0,0-.84.89,1,1,0,0,0,.31.71.92.92,0,0,0,.75.2l1.64-.24,3.9-.56a5.67,5.67,0,0,0-2,4.22c0,2.44,1.9,4.28,4.63,4.48h.08a1,1,0,0,0,.66-.25,1,1,0,0,0,.3-.71A1,1,0,0,0,157.16,75.86Z"/><path class="cls-10" d="M157.91,70.67a.71.71,0,0,0-1.19.47.64.64,0,0,0,.17.41,11.21,11.21,0,0,1,1,1.17.67.67,0,0,0,.56.32.7.7,0,0,0,.54-1.13A7.39,7.39,0,0,0,157.91,70.67Z"/><path class="cls-10" d="M172.24,73.55a1,1,0,0,0-.77.4A4.6,4.6,0,0,1,167.76,76c-.87,0-1.44-.38-1.44-2.26,0-2.63.2-5.69.29-6.88a.77.77,0,0,0-.2-.61,1,1,0,0,0-.74-.29.87.87,0,0,0-.93.81c-.09,1.19-.3,4.24-.3,7s1,4.07,3.32,4.07A6.5,6.5,0,0,0,173,75a.9.9,0,0,0-.73-1.49Z"/><path class="cls-10" d="M182.06,71.1a.86.86,0,0,0,.31.68.77.77,0,0,0,.5.18.64.64,0,0,0,.2,0,19.4,19.4,0,0,1,3.4-.36.81.81,0,0,0,.84-.84.86.86,0,0,0-.89-.88,19.79,19.79,0,0,0-3.62.38A.87.87,0,0,0,182.06,71.1Z"/><path class="cls-10" d="M186.88,75.67a12.86,12.86,0,0,1-1.87.13c-1.48,0-1.92-.22-2-1a.74.74,0,0,0-.79-.7.94.94,0,0,0-.69.28.86.86,0,0,0-.22.65c.1,1.79,1.25,2.58,3.74,2.58a13.82,13.82,0,0,0,2.12-.15.87.87,0,0,0,.75-.87,1,1,0,0,0-.32-.71A.87.87,0,0,0,186.88,75.67Z"/><path class="cls-10" d="M182.73,68.69a.84.84,0,0,0-.83-.87,1.05,1.05,0,0,0-.24,0l-.1,0-.92.21c.08-.53.14-1,.19-1.53a.78.78,0,0,0-.18-.62,1,1,0,0,0-.72-.3.85.85,0,0,0-.9.75l0,.39c-.06.58-.12,1.08-.21,1.67a17,17,0,0,1-1.89.23.85.85,0,0,0-.83.89.87.87,0,0,0,.27.65.79.79,0,0,0,.63.2c.47,0,1-.07,1.49-.14a37.22,37.22,0,0,1-1.83,6.39,1.07,1.07,0,0,0-.1.44.87.87,0,0,0,.9.84,1.06,1.06,0,0,0,1-.7,42.31,42.31,0,0,0,2-7.31c.58-.13,1.17-.28,1.75-.44A.82.82,0,0,0,182.73,68.69Z"/><path class="cls-10" d="M192.26,73.37a2.44,2.44,0,1,0,2.46,2.43A2.43,2.43,0,0,0,192.26,73.37Zm0,3.7a1.26,1.26,0,1,1,1.25-1.27A1.24,1.24,0,0,1,192.26,77.07Z"/></g></g></svg>