<svg xmlns="http://www.w3.org/2000/svg" viewBox="0 0 344.13 329.52"><defs><style>.cls-1{fill:#7dbf80;}.cls-2{fill:#7dbf81;}.cls-3{fill:#b3e5a3;}.cls-4{fill:#ff8b5d;}.cls-5{fill:#ffaa5f;}.cls-6{fill:#b67f60;}.cls-7{fill:#fff;}</style></defs><g id="レイヤー_2" data-name="レイヤー 2"><g id="Data"><path class="cls-1" d="M48.53,86.27A28.29,28.29,0,0,0,6.18,93h0a28.29,28.29,0,0,0,13,40.88l95.52,40.81a12.72,12.72,0,0,0,15.82-5h0a12.72,12.72,0,0,0-2.61-16.39Z"/><path class="cls-2" d="M53.59,71.16A28.3,28.3,0,0,1,61.5,29h0A28.3,28.3,0,0,1,102,43.08l38.19,96.59a12.72,12.72,0,0,1-5.44,15.68h0a12.72,12.72,0,0,1-16.32-3.06Z"/><path class="cls-3" d="M51.29,39.14A28.31,28.31,0,0,0,8.56,35.37h0a28.29,28.29,0,0,0,2.61,42.8l82.68,62.88a12.72,12.72,0,0,0,16.57-1h0a12.73,12.73,0,0,0,1.46-16.54Z"/><path class="cls-4" d="M75,210.13C103.63,239.52,261,353.56,290.37,325S210.05,136,181.45,106.58A74.24,74.24,0,0,0,75,210.13Z"/><path class="cls-5" d="M98.94,90.12c-.55.5-1.09,1-1.63,1.54a74.24,74.24,0,0,0-1.43,105C120.92,222.38,244.7,313,294.81,316c8.29-43.87-87-182.29-113.36-209.38A74.28,74.28,0,0,0,98.94,90.12Z"/><path class="cls-6" d="M188.74,114.78c-2.79-3.34-5.24-6.1-7.29-8.2l-31,30.13a5.48,5.48,0,1,0,7.64,7.85Z"/><path class="cls-6" d="M121.51,248.13q-4.59-3.37-8.89-6.64l30.82-30a5.48,5.48,0,1,1,7.64,7.85Z"/><path class="cls-6" d="M205.13,302.62l24.33-23.68a5.47,5.47,0,0,1,7.63,7.85l-21.87,21.29Q210.22,305.46,205.13,302.62Z"/><path class="cls-6" d="M242.74,191.29,206.06,227a5.48,5.48,0,0,1-7.64-7.85l38.32-37.28Q239.76,186.52,242.74,191.29Z"/><path class="cls-6" d="M133,153.69a5.48,5.48,0,1,1,7.64,7.85l-5.23,5.09a5.48,5.48,0,1,1-7.64-7.85Z"/><path class="cls-2" d="M344.13,61.76C344.13,27.71,310,0,268,0s-76.1,27.71-76.1,61.76c0,30.53,27.07,56.1,63.65,60.93,2.48.53,5.85,1.63,6.7,3.75.77,1.93.5,4.94.25,6.88,0,0-.89,5.37-1.09,6.52-.33,1.92-1.53,7.52,6.59,4.1s43.83-25.81,59.8-44.18h0c11-12.1,16.32-24.37,16.32-38"/><line class="cls-7" x1="230.13" y1="43.76" x2="308.13" y2="43.76"/><path class="cls-7" d="M308.13,48.76h-78a5,5,0,0,1,0-10h78a5,5,0,0,1,0,10Z"/><line class="cls-7" x1="230.13" y1="65.26" x2="308.13" y2="65.26"/><path class="cls-7" d="M308.13,70.26h-78a5,5,0,1,1,0-10h78a5,5,0,0,1,0,10Z"/><line class="cls-7" x1="230.13" y1="86.76" x2="283.35" y2="86.76"/><path class="cls-7" d="M283.35,91.76H230.13a5,5,0,0,1,0-10h53.22a5,5,0,0,1,0,10Z"/></g></g></svg>