<svg xmlns="http://www.w3.org/2000/svg" viewBox="0 0 101.13 96.36"><defs><style>.cls-1{fill:#fff;}</style></defs><g id="レイヤー_2" data-name="レイヤー 2"><g id="レイヤー_1-2" data-name="レイヤー 1"><path class="cls-1" d="M50.56,0C22.68,0,0,18.41,0,41,0,61.33,18,78.31,42.28,81.52c1.65.36,3.89,1.09,4.46,2.5a10.22,10.22,0,0,1,.16,4.57s-.59,3.56-.72,4.32c-.21,1.28-1,5,4.38,2.73S79.68,78.49,90.29,66.28c7.33-8,10.84-16.18,10.84-25.24C101.13,18.41,78.45,0,50.56,0ZM32.73,53.12a1,1,0,0,1-1,1H17.56a1,1,0,0,1-.67-.27h0s0,0,0,0a1,1,0,0,1-.28-.68v-22a1,1,0,0,1,1-1h3.55a1,1,0,0,1,1,1v17.5h9.64a1,1,0,0,1,1,1Zm8.54,0a1,1,0,0,1-1,1H36.74a1,1,0,0,1-1-1v-22a1,1,0,0,1,1-1h3.55a1,1,0,0,1,1,1Zm24.42,0a1,1,0,0,1-1,1H61.15a1.09,1.09,0,0,1-.25,0h0l-.07,0h0l0,0-.05,0,0,0-.07,0h0a1.18,1.18,0,0,1-.26-.24L50.24,40V53.12a1,1,0,0,1-1,1H45.7a1,1,0,0,1-1-1v-22a1,1,0,0,1,1-1h3.83l0,0h0l.06,0h0l0,0,0,0,0,0h0l0,.05s0,0,0,0l.06.06h0l.09.1L60.17,44.18V31.09a1,1,0,0,1,1-1H64.7a1,1,0,0,1,1,1ZM85.27,34.64a1,1,0,0,1-1,1H74.65v3.72h9.64a1,1,0,0,1,1,1v3.54a1,1,0,0,1-1,1H74.65v3.72h9.64a1,1,0,0,1,1,1v3.55a1,1,0,0,1-1,1H70.11a1,1,0,0,1-.67-.27h0v0a1,1,0,0,1-.28-.68v-22a.94.94,0,0,1,.28-.68s0,0,0,0,0,0,0,0a1,1,0,0,1,.68-.27H84.29a1,1,0,0,1,1,1Z"/></g></g></svg>