<svg xmlns="http://www.w3.org/2000/svg" viewBox="0 0 548.36 148.81"><defs><style>.cls-1{fill:#fff;}.cls-2{fill:#231815;}</style></defs><g id="レイヤー_2" data-name="レイヤー 2"><g id="レイヤー_1-2" data-name="レイヤー 1"><rect class="cls-1" width="548.36" height="148.81" rx="15.39"/><path class="cls-2" d="M250.68,39a2,2,0,0,1,2.39,2.16c0,1.7-.64,2.44-2.39,2.44h-30a2.08,2.08,0,0,0-2.35,2.35V56.08c0,4.51-.36,12.1-2.71,18-1,2.58-1.7,3.22-2.9,3.22A2.59,2.59,0,0,1,210,74.85c0-.64.14-1.06,1.66-4.6,1.19-2.85,1.93-7.73,1.93-14.21V45c0-4.55,1.75-6.07,6-6.07H229.7V36.76c0-1.79,1.1-2.25,2.39-2.25s2.67.13,2.67,2.25V39Zm-18.59,7.08c0-.64,0-2.16,2.21-2.16,1.93,0,2.53.65,2.53,2.16v3.22h13.85A2,2,0,0,1,253,51.48c0,1.7-1,2.21-2.35,2.21H236.83v5.66H245c3.54,0,5.11,1.24,5.11,5.11v7.4c0,4-1.71,5.11-5.11,5.11H225.51c-3.4,0-5.1-1.1-5.1-5.11v-7.4c0-3.82,1.52-5.11,5.1-5.11h6.58Zm13.25,19.46a1.63,1.63,0,0,0-1.84-1.84H226.94c-1.2,0-1.79.56-1.79,1.84v5.2c0,1.2.55,1.84,1.79,1.84H243.5a1.63,1.63,0,0,0,1.84-1.84Z"/><path class="cls-2" d="M289.23,39.84V36.62c0-.55,0-2,2.11-2s2.3,1,2.3,2v3.22h4.69c-.55-.5-1.38-1.33-1.88-1.79a1.91,1.91,0,0,1-.74-1.34c0-1.19,1.47-1.88,2.39-1.88.46,0,.74,0,2.58,1.61,1.43,1.24,1.66,1.61,1.66,2.21a1.85,1.85,0,0,1-.42,1.19c.74,0,2.21,0,2.21,2.07s-1.33,2.17-2.16,2.17h-8.33V47.2h4c3.82,0,4.84.88,4.84,4.74V72.78c0,3.87-1.06,4.79-5.16,4.79-.92,0-2.67,0-2.67-2.49,0-1.84.79-1.88,2.4-2,1,0,1.19-.64,1.19-1.28V67.08h-4.6v8.28c0,.46,0,2.12-2.21,2.12a1.92,1.92,0,0,1-2.2-2.12V67.08h-4.65V76a1.79,1.79,0,0,1-2,2c-1.61,0-2-.92-2-2v-24c0-3.86,1-4.74,4.78-4.74h3.87V44.08h-7.92a3.84,3.84,0,0,1-1-.1,2.4,2.4,0,0,1-2.21,2.63c-1.75,0-4.83-4.19-6.3-6.31-.42-.55-.56-.78-.83-.78s-.28.09-.69.78a36.23,36.23,0,0,1-4.51,6.08c-.78.82-2,2.11-3,2.11a2.55,2.55,0,0,1-2.26-2.44,2.37,2.37,0,0,1,1.06-1.79A26.52,26.52,0,0,0,268,36.35a3.14,3.14,0,0,1,2.95-1.71,3.31,3.31,0,0,1,3,1.61,26.21,26.21,0,0,0,5.29,6c-.14-2.35,1.38-2.4,2.11-2.4Zm-20.52,13h-4a2,2,0,1,1,0-4h4V46.51a2.14,2.14,0,1,1,4.28,0v2.26h3.63a1.82,1.82,0,0,1,2.12,2,1.85,1.85,0,0,1-2.12,2.07H273v3.63h4.83a1.84,1.84,0,0,1,2.11,2c0,1.38-.73,2-2.11,2H263.14c-1.15,0-2.16-.46-2.16-2s.78-2,2.16-2h5.57Zm9.57,19.55c0,3.77-.92,4.78-4.79,4.78H267.6c-3.82,0-4.74-1-4.74-4.78V67.86c0-3.77.88-4.74,4.74-4.74h5.89c3.82,0,4.79.92,4.79,4.74Zm-4.19-4.14c0-.83-.37-1.29-1.24-1.29h-4.33a1.14,1.14,0,0,0-1.28,1.29V72a1.15,1.15,0,0,0,1.28,1.29h4.33A1.13,1.13,0,0,0,274.09,72Zm10.49-12.7h4.65V51.21h-3.41c-.83,0-1.24.41-1.24,1.28Zm4.65,3.59h-4.65v4.37h4.65Zm9-3.59v-3c0-.82-.37-1.28-1.24-1.28h-3.36v4.32Zm0,3.59h-4.6v4.37h4.6Z"/><path class="cls-2" d="M324.92,51.71c-1.2,0-2-.32-2.07-2-3.68,2.49-8,4.47-8.88,4.47a2.54,2.54,0,0,1-2.44-2.76c0-.83.28-1.52,1.61-2.07a47.19,47.19,0,0,0,5.62-2.53c-.6-.65-.83-.88-3.09-3a1.76,1.76,0,0,1-.73-1.38,2.43,2.43,0,0,1,2.34-2.25,2.29,2.29,0,0,1,1.48.64,38.26,38.26,0,0,1,3.86,3.59c1.47-1.11,4.78-3.87,4.78-4.46s-.73-.56-1-.56H319c-1,0-2.08-.32-2.08-1.88,0-1.34.83-1.89,2.08-1.89h12.88c1.79,0,2.53,0,3.49.87.55.46,2.53,2.9,3,3.36,1.94-1.79,2.95-2.94,2.95-2.94,1.79-1.8,1.79-2,2.62-2a2.49,2.49,0,0,1,2.44,2.16c0,.74-.37,1.2-1.8,2.67-.59.65-1.93,2-3.12,3.08a26,26,0,0,0,2.43,1.89,53.15,53.15,0,0,0,4-4.1c1.65-1.88,1.74-1.93,2.53-1.93a2.55,2.55,0,0,1,2.53,2.3c0,.46-.05.83-1.61,2.49-.46.46-2.07,2.16-3.64,3.49a28.77,28.77,0,0,0,5.25,2.26c.78.27,1.7.6,1.7,2.07a2.66,2.66,0,0,1-2.35,2.8c-2.3,0-7.45-3.22-8.83-4.14-.14,1.61-1.24,1.75-2.12,1.75Zm26.59,20.57c.78,0,2.35.09,2.35,2.11,0,1.57-.51,2.35-2.35,2.35h-36.8c-.69,0-2.4,0-2.4-2.07,0-1.57.56-2.39,2.4-2.39h8.92c-.5-.42-.55-.56-1.06-1.94-.69-2-.78-2.2-.78-2.71a1.24,1.24,0,0,1,.74-1.15h-2c-3.68,0-3.95-1.93-3.95-4.51v-2.8c0-3.59.82-4.51,4.51-4.51h24.19c3.64,0,4.51.87,4.51,4.51V62c0,2.53-.27,4.51-3.91,4.51h-2a1.32,1.32,0,0,1,.78,1.29,6.24,6.24,0,0,1-.46,1.75c-.23.69-.69,1.84-1,2.76Zm-6.58-12.75a1.1,1.1,0,0,0-1.24-1.24H322.57a1.1,1.1,0,0,0-1.24,1.24v2c0,.73.28,1.24,1.24,1.24h21.12a1.09,1.09,0,0,0,1.24-1.24Zm-4.74-11.91a45.28,45.28,0,0,1-7.13-7.27,39.31,39.31,0,0,1-7.31,7.27Zm-2.07,24.66A37.12,37.12,0,0,0,339.5,68c.33-1.15.51-1.28.88-1.56H325.89a1.32,1.32,0,0,1,.69.78,20.57,20.57,0,0,1,1.24,4,1.11,1.11,0,0,1-.46,1Z"/><path class="cls-2" d="M369.91,58.61h-5.39c-1.33,0-2.25-.5-2.25-2s.83-2,2.25-2h5.39V50.42h-3.08c-.79,0-2.12-.13-2-2.34a1.67,1.67,0,0,1-.92.27c-1.34,0-2.21-1.61-2.21-2.57s.73-1.75,2.34-3.18a31.61,31.61,0,0,0,5.2-6.12,3.23,3.23,0,0,1,3.09-1.74c1.79,0,2.11.41,4.14,3.12a36.73,36.73,0,0,0,3.77,4.38,2.56,2.56,0,0,1,.87,1.7,2.46,2.46,0,0,1-2.25,2.25c-1.29,0-2.72-1.88-5.89-6.16-.23-.28-.41-.42-.64-.42s-.46.19-.93.88a42.45,42.45,0,0,1-4.64,5.93h9.75a1.75,1.75,0,0,1,2,2c0,1.93-1.29,2-2,2h-2.71v4.19h4.23c1.29,0,2,.6,2,1.89,0,1.1-.23,2.11-2,2.11h-4.23V70.48c1.33-.27,3.59-.73,3.95-.73a1.4,1.4,0,0,1,1.38.82c.51-.32,2.86-1.65,3.36-2s2.95-2.07,3.41-2.4a1.91,1.91,0,0,1,1.1-.41c1,0,1.75,1.2,1.75,2.21s-.55,1.47-1.8,2.44a52,52,0,0,1-5.33,3.77,3.51,3.51,0,0,1-1.8.6,1.79,1.79,0,0,1-1.7-1.11c-2.9,1.29-12.93,3.09-14.21,3.09-1.94,0-1.94-2.08-1.94-2.31,0-1.84,1-2.07,3.82-2.57.65-.14,3.5-.65,4.1-.74Zm-2.53,3.59a38.7,38.7,0,0,1,.82,5.94c0,1.61-1.1,2-2.11,2-1.52,0-1.52-.41-1.89-3.58,0-.6-.6-4.33-.6-4.47,0-.82.56-1.65,2-1.65C366.78,60.41,367.15,61.1,367.38,62.2Zm12.74-.6a38.74,38.74,0,0,1-1.29,5.52c-.32.92-.46,1.61-1.61,1.61-.27,0-1.88-.13-1.88-1.56,0-.46.92-4,1.05-4.78.33-1.66.46-2.3,1.71-2.3C378.37,60.09,380.12,60.13,380.12,61.6Zm14.12,11.23c0,4.83-1.47,4.78-7,4.74-1.56,0-3.17,0-3.17-2.35s1.38-2.3,2.43-2.3c.33,0,1.89.09,2.21,0,.74,0,1.11-.42,1.11-1.52V54.38h-8.05c-.6,0-2,0-2-2s1.15-2.07,2-2.07h15.59V47.11H384.26a1.64,1.64,0,0,1-1.89-1.84,1.63,1.63,0,0,1,1.89-1.84h13.11v-2a1.14,1.14,0,0,0-1.29-1.28H383.57c-.64,0-2-.05-2-2,0-1.66.92-2,2-2h13.85c3.22,0,4.41,1.34,4.41,4.65v9.66h1.75a1.69,1.69,0,0,1,1.8,1.93c0,2-1.43,2-2,2h-9.16v1.79a23.49,23.49,0,0,0,2.17,5.43A31.84,31.84,0,0,0,400,57.83c1.2-1.43,1.43-1.75,2.26-1.75a2.16,2.16,0,0,1,2.07,2.07c0,1.06-.51,1.71-2,3.41a32,32,0,0,1-3.68,3.63A30.38,30.38,0,0,0,404,70.71c1.2,1.06,1.2,1.43,1.2,1.93a2.46,2.46,0,0,1-2.3,2.53c-.83,0-1.8-.64-3.54-2.43a23.86,23.86,0,0,1-5.16-8.15ZM386,58.61c.74.92,2,2.63,2,3.59a2.24,2.24,0,0,1-2.16,2c-.78,0-1.2-.6-1.79-1.52-.37-.55-2.21-2.81-2.58-3.36a2.24,2.24,0,0,1-.6-1.43,2.21,2.21,0,0,1,1.89-2C383.48,55.94,383.85,55.94,386,58.61Z"/><path class="cls-2" d="M229.45,103.06c0,3.4-1.32,3.4-4.3,3.4-.83,0-2.24,0-2.24-1.74,0-.54.09-1.47,1.28-1.47.19,0,1.35,0,1.51,0,.41-.1.6-.42.6-.93v-5.2h-3.94a12.86,12.86,0,0,1-2.66,8c-.67.83-2,2.24-2.92,2.24a1.83,1.83,0,0,1-1.7-1.7c0-.57,0-.57,1.9-2.46a9.11,9.11,0,0,0,2.21-6.1h-8.5a1.52,1.52,0,1,1,0-3H222.3V92.64c0-1.09.83-1.35,1.6-1.35,1.09,0,1.89.26,1.89,1.35v1.41h11.77a1.35,1.35,0,0,1,1.54,1.51c0,1.47-1,1.53-1.54,1.53h-8.11Zm1.12,4.9a3.43,3.43,0,0,1,1.86.29,2.11,2.11,0,0,1,1,1.83c0,1.12-.64,2-1.89,3.14a24.92,24.92,0,0,1-3.75,2.76,39.35,39.35,0,0,0,9.42,2.11c.74.1,1.64.26,1.64,1.54a1.72,1.72,0,0,1-1.7,1.86,42,42,0,0,1-13.08-3.59,47.87,47.87,0,0,1-13.21,3.53,1.49,1.49,0,0,1-1.54-1.7c0-1.29.93-1.45,1.73-1.54a52.22,52.22,0,0,0,9.49-2.21,23.15,23.15,0,0,1-4-3.24c-1.54.93-4.33,2.34-5.23,2.34a1.64,1.64,0,0,1-1.54-1.73c0-.77.42-1.09,1.12-1.41,5.1-2.31,5.62-2.82,8.79-5.74a1.81,1.81,0,0,1,1.28-.55,1.62,1.62,0,0,1,1.67,1.48,1.39,1.39,0,0,1-.23.83Zm-17.06-3.4c-1.63,1.86-1.92,1.86-2.37,1.86a1.75,1.75,0,0,1-1.76-1.66c0-.65.45-1.06,1.57-2.12a16,16,0,0,0,2.6-3.46c.32-.58.57-1,1.31-1s1.7.51,1.7,1.31C216.56,101,213.64,104.4,213.51,104.56Zm6,6.09c-.06,0-.32.26-.38.29a25.4,25.4,0,0,0,5.09,3.5c2.86-1.41,4.84-3,4.84-3.46s-.35-.33-.54-.33Zm15.13-10.41a22.85,22.85,0,0,0,3.18,3.39,1.68,1.68,0,0,1,.67,1.22,1.83,1.83,0,0,1-1.76,1.73c-.65,0-1.06-.29-3-2.4-.86-.93-2.79-3.18-2.79-4.23a1.67,1.67,0,0,1,1.54-1.51C233.42,98.44,233.55,98.6,234.67,100.24Z"/><path class="cls-2" d="M268.69,97.8c2.22,0,3.24.77,3.24,3.2v6.51c0,2.47-1.06,3.24-3.24,3.24h-8.4a13.64,13.64,0,0,1-2.08,4.62,40.81,40.81,0,0,0,12.6,2.59c2.24,0,3.46,0,3.46,1.7s-1.38,1.73-2.08,1.73a53.17,53.17,0,0,1-7.18-.67,32.42,32.42,0,0,1-9.27-3,18.65,18.65,0,0,1-5.7,2.63,29.12,29.12,0,0,1-4.08.87c-1.15,0-1.54-1.13-1.54-1.86,0-1.25.84-1.45,1.61-1.57A23.13,23.13,0,0,0,252.7,116c-1.16-.77-3.59-2.57-3.59-3.56a1.61,1.61,0,0,1,1.63-1.35c.48,0,.87.19,1.67.8a34.7,34.7,0,0,0,2.91,2,9,9,0,0,0,1.67-3.17h-7.05c-2.18,0-3.24-.74-3.24-3.24V101c0-2.4,1-3.2,3.24-3.2h7.72V95.56H245.77a1.5,1.5,0,1,1,0-3H273a1.31,1.31,0,0,1,1.51,1.48c0,1.51-1.09,1.51-1.51,1.51H260.93V97.8Zm-11,5.22v-2.69h-6.82a.79.79,0,0,0-.9.9V103Zm-.16,5.1a20.42,20.42,0,0,0,.16-2.82h-7.72v1.92a.79.79,0,0,0,.9.9Zm3.43-2.82a22,22,0,0,1-.16,2.82h7a.79.79,0,0,0,.9-.9V105.3Zm0-5V103h7.73v-1.79a.79.79,0,0,0-.9-.9Z"/><path class="cls-2" d="M290.05,105.59c.68,0,1.19,0,3.4-.06.45,0,2.47-.13,2.89-.13a1.52,1.52,0,0,1,1.73,1.7c0,1.66-1.16,1.7-2.82,1.79s-5.29.1-5.87.1a17.33,17.33,0,0,0-.29,3c0,2.63,1.38,4.84,6.51,4.84,2.24,0,7.11-.45,7.11-5.29a9.07,9.07,0,0,0-.73-3.37,3.74,3.74,0,0,1-.42-1.28c0-1,1.06-1.47,1.83-1.47a1.76,1.76,0,0,1,1.67,1.15,12.05,12.05,0,0,1,1.18,5.19c0,4.75-3,8.4-10.58,8.4-5.45,0-10-2.08-10-8.2a22.62,22.62,0,0,1,.26-3c-5-.19-6-.64-6-2.11a1.58,1.58,0,0,1,1.63-1.77c.22,0,1.35.19,1.64.23a24,24,0,0,0,3.33.29l.86-4.24c-5.48-.22-6.09-.77-6.09-2.05A1.58,1.58,0,0,1,283,97.48c.29,0,1.54.19,1.79.22.68.1,2.18.23,3.34.29l.86-4.2c.16-.74.39-1.57,1.64-1.57s1.92.61,1.92,1.41a2.36,2.36,0,0,1-.06.61l-.83,3.85c.89,0,4.87-.19,5.7-.19A1.48,1.48,0,0,1,299,99.53c0,1.76-.87,1.86-6.83,1.86l-1.22,0Z"/><path class="cls-2" d="M335.81,114.44a4.55,4.55,0,0,1,.89-.1c1.67,0,1.67,1.67,1.67,1.89a1.68,1.68,0,0,1-1.25,1.8c-1.89.61-6.89.83-9.75.83-8,0-13.75-1.28-13.75-6.7,0-2,1.19-5,3-5,.81,0,1.64.51,1.64,1.28,0,.35-.1.48-.45,1.22a4,4,0,0,0-.58,2c0,1.63.81,3.59,10,3.59A47.25,47.25,0,0,0,335.81,114.44ZM317.08,95.07a37.72,37.72,0,0,1,6.38-.38c1.13,0,9,.1,11.19,1a1.56,1.56,0,0,1,1,1.57c0,.23,0,1.9-1.64,1.9a11.33,11.33,0,0,1-1.15-.13,58.06,58.06,0,0,0-8.6-.64c-1,0-6.28.29-6.5.29a1.61,1.61,0,0,1-1.77-1.9A1.64,1.64,0,0,1,317.08,95.07Z"/><path class="cls-2" d="M352.26,107.16a19.19,19.19,0,0,1,9.23-2.53c6.86,0,9.11,4,9.11,7.24a7.34,7.34,0,0,1-4.55,6.83c-2.47,1.12-6.32,1.51-9.33,1.51a30.66,30.66,0,0,1-6.35-.55,1.64,1.64,0,0,1,.45-3.17,7,7,0,0,1,1.25.1,33,33,0,0,0,4.52.32c1.6,0,10.42,0,10.42-5.17,0-1.47-.9-4-5.71-4a19.21,19.21,0,0,0-9.65,3.07c-1.44.93-1.63,1-2,1a1.81,1.81,0,0,1-1.86-1.64,11.15,11.15,0,0,1,.9-2.43c.35-.9,1.34-3.4,2.37-6.9-5.71,0-6.6,0-6.6-1.82A1.48,1.48,0,0,1,346,97.38c.77,0,4.13.16,4.81.16h1.12c.16-.67.8-3.59,1-4.16a1.44,1.44,0,0,1,1.63-1.32c.9,0,1.86.42,1.86,1.35a32.41,32.41,0,0,1-1,4,78.59,78.59,0,0,0,9.94-1.06,18.81,18.81,0,0,1,2.85-.42c1.54,0,1.54,1.6,1.54,1.76,0,1.29-.93,1.51-2.56,1.8a113,113,0,0,1-12.73,1.25C354,102.22,353.38,104.21,352.26,107.16Z"/><path class="cls-2" d="M393.24,103.22c6.12,0,9.29,3.27,9.29,7.56a8.26,8.26,0,0,1-5.73,7.79c-1.13.42-3.63,1.32-8.85,1.32s-6.19-.48-6.19-2.09a1.51,1.51,0,0,1,1.57-1.63c.32,0,1.7.13,2,.16,1.34.1,2.37.13,3,.13,1.89,0,10.64,0,10.64-5.81,0-4.16-4.84-4.16-5.74-4.16A16.79,16.79,0,0,0,383,110.05c-1.38,1-1.54,1.15-2.21,1.15a1.83,1.83,0,0,1-2-1.83c0-1.25,1.48-8.43,1.86-10.22.26-1.22.49-2.15,1.8-2.15.8,0,1.86.32,1.86,1.38a11.33,11.33,0,0,1-.48,2.43c-.55,2.28-.77,3.24-1.22,5.71A20.47,20.47,0,0,1,393.24,103.22Zm-7.76-10.74a43,43,0,0,1,9.23,1.86c1.61.45,2.5.73,2.5,2a1.61,1.61,0,0,1-1.54,1.77c-.32,0-2.3-.58-2.66-.68a77.66,77.66,0,0,0-7.6-1.6c-1-.16-1.69-.45-1.69-1.57A1.55,1.55,0,0,1,385.48,92.48Z"/><path class="cls-2" d="M93.73,33.71v77.75h84V33.71Zm52.38,4.9h10.94V54a5.47,5.47,0,1,1-10.94,0Zm-15.83,0h10.94V54a5.47,5.47,0,1,1-10.94,0Zm-15.83,0h10.94V54a5.47,5.47,0,0,1-10.94,0Zm-15.83,0h10.94V54a5.47,5.47,0,0,1-10.94,0Zm74.25,68h-23.5V90.73H122.13v15.83H98.62V62.76A10.31,10.31,0,0,0,112,60.65a10.32,10.32,0,0,0,15.82,0,10.33,10.33,0,0,0,15.83,0,10.33,10.33,0,0,0,15.83,0,10.3,10.3,0,0,0,13.38,2.11Zm0-52.59a5.47,5.47,0,1,1-10.93,0V38.61h10.93Z"/><rect class="cls-2" x="111.27" y="70.78" width="8.16" height="9.56"/><rect class="cls-2" x="152.07" y="70.78" width="8.16" height="9.56"/><rect class="cls-2" x="131.67" y="70.78" width="8.16" height="9.56"/></g></g></svg>