<svg xmlns="http://www.w3.org/2000/svg" viewBox="0 0 548.36 148.81"><defs><style>.cls-1,.cls-3{fill:#fff;}.cls-2{fill:#231815;}.cls-3{stroke:#000;stroke-miterlimit:10;stroke-width:4.11px;}</style></defs><g id="レイヤー_2" data-name="レイヤー 2"><g id="レイヤー_1-2" data-name="レイヤー 1"><rect class="cls-1" width="548.36" height="148.81" rx="15.39"/><path class="cls-2" d="M249.73,88.81A2,2,0,0,1,252,91a2.1,2.1,0,0,1-2.35,2.4H228.29c-4.1,0-8.93-1-11.09-5a46.61,46.61,0,0,1-3.59,4.14,3.37,3.37,0,0,1-2.44,1.33,2.79,2.79,0,0,1-2.62-2.71c0-1.15.32-1.43,2.67-3.45a19.89,19.89,0,0,0,2.58-2.53V74.69c0-.6-.1-1.43-1.34-1.43h-1.61a2,2,0,0,1-2.16-2.21c0-1.84.87-2.39,2.39-2.39h2.67c3.82,0,4.69,1.06,4.69,4.79V83c.65,5.79,7.23,5.79,9.52,5.79ZM211.91,51.87c.74,0,1.24,0,4.55,3.08s3.36,3.68,3.36,4.33a2.68,2.68,0,0,1-2.53,2.57c-1,0-1.19-.18-3.08-2.11-1-1.06-2.44-2.44-3.73-3.64a2.41,2.41,0,0,1-1-1.84A2.58,2.58,0,0,1,211.91,51.87ZM223.55,57c0-3.55,1.42-4.65,4.6-4.65h15.13c3.32,0,4.65,1.2,4.65,4.65V66a2.17,2.17,0,0,1,1.89,1.47,8.12,8.12,0,0,1,.37,2.95V82.51c0,4.65-2.53,4.65-6.26,4.65-2.49,0-3.82,0-3.82-2.26,0-1.7,1-2.11,2-2.11.37,0,2.17,0,2.49,0,.83-.1,1-.79,1-1.38V70.92a1.28,1.28,0,0,0-1.42-1.43H227.09a1.26,1.26,0,0,0-1.42,1.43V84.76c0,.88-.14,2.35-2.21,2.35s-2.26-1.33-2.26-2.35V70.46c0-2.44.23-4,2.35-4.47Zm8.56,8.74V62.41c0-2.86,1-3.73,3.77-3.73h7.59V57.53a1.13,1.13,0,0,0-1.29-1.29H229.3A1.14,1.14,0,0,0,228,57.53v8.19Zm10.67,13.52c0,2.72-.83,3.73-3.73,3.73H232.2c-2.85,0-3.73-1-3.73-3.73V75.56c0-2.67.78-3.72,3.73-3.72h6.85c2.9,0,3.73,1,3.73,3.72Zm-3.68-2.67a1.14,1.14,0,0,0-1.29-1.28h-4.32a1.13,1.13,0,0,0-1.29,1.28v1.61a1.14,1.14,0,0,0,1.29,1.29h4.32a1.13,1.13,0,0,0,1.29-1.29Zm-2.81-10.85h7.18V62h-5.89a1.13,1.13,0,0,0-1.29,1.29Z"/><path class="cls-2" d="M257.08,74.64a2.28,2.28,0,1,1,0-4.55h16.61V62.54H259.47a2.35,2.35,0,1,1,0-4.69h14.22V53.48A2.15,2.15,0,0,1,276.13,51c2.11,0,2.67.88,2.67,2.44v4.37h14.35a2.35,2.35,0,1,1,0,4.69H278.8v7.55h16.6a2.28,2.28,0,1,1,0,4.55H275a87.38,87.38,0,0,1-7.27,12.79c7.31-.32,8.51-.37,13.25-.69,1,0,3.45-.23,5.52-.41-1-1.43-1.24-1.75-3.41-4.46a2.71,2.71,0,0,1-.69-1.75,2.6,2.6,0,0,1,2.67-2.4c1.11,0,1.57.46,4,3.5a73,73,0,0,1,6,8.83,3.57,3.57,0,0,1,.64,1.75,2.75,2.75,0,0,1-2.85,2.53c-1.33,0-1.42-.18-3.54-3.77-7.78.74-8.1.78-15.28,1.24-3.77.23-11.68.78-15,.78-.87,0-2.44,0-2.44-2.57a1.91,1.91,0,0,1,1.66-2.16c.32,0,1-.1,3.54-.19a71,71,0,0,0,7.36-13Z"/><path class="cls-2" d="M319.41,81.82c-1.1,2.76-3.31,7.87-7.68,7.87-4.14,0-9.57-6-9.57-15.09,0-11.09,8.28-20.15,20.93-20.15,12.43,0,18.91,8.83,18.91,18.17,0,13.94-12.79,19.18-14.81,19.18a2.58,2.58,0,0,1-2.53-2.67c0-1.19.37-1.47,2.85-2.71,4.79-2.35,9.25-6.35,9.25-13.85,0-1.93-.19-12-12.06-13.48C324.24,62.87,323.05,72.62,319.41,81.82Zm-12.37-7c0,5.2,2.48,9.57,4.51,9.57,1.79,0,3.22-3.91,4.23-7a89.64,89.64,0,0,0,4-18.13C308,61.85,307,72,307,74.83Z"/><path class="cls-2" d="M353,61.76V56.84h-4.6a2.12,2.12,0,1,1,0-4.23h17.94a2.12,2.12,0,1,1,0,4.23h-4.46v4.92h1.24c3.91,0,4.37,2.44,4.37,4.65V88.77c0,3.63-1.56,4.64-4.64,4.64H352.16c-3.12,0-4.64-1.06-4.64-4.64V66.41c0-2.76.78-4.65,4.46-4.65Zm3.18,4.05v3c0,6.62-2.12,9-3.18,9a1.64,1.64,0,0,1-1.65-1.66c0-.37.09-.51.92-1.93,1-1.7,1.24-3,1.24-5.75V65.81h-.92c-.88,0-1.29.37-1.29,1.29V80.62h12.47V77.17h-1.7c-2.86,0-3.41-.78-3.41-3.63V65.81ZM351.29,84.3V88a1.12,1.12,0,0,0,1.29,1.29h9.89A1.13,1.13,0,0,0,363.76,88V84.3Zm7.36-22.54V56.84h-2.48v4.92Zm2.67,4.05v6.26c0,1,.51,1.1,1,1.1h1.43V67.1a1.13,1.13,0,0,0-1.29-1.29ZM381.52,68a1.57,1.57,0,0,0,1.79-1.79V59a1.57,1.57,0,0,0-1.79-1.79h-9.8a2,2,0,0,1-2.3-2.3c0-2.3,1.65-2.3,2.3-2.3H383c3.45,0,5.15,1.15,5.15,5.1v9.71c0,3.91-1.66,5.11-5.15,5.11H376.5a1.63,1.63,0,0,0-1.84,1.84V86.83c0,1.89,1.15,1.89,3.08,1.89,5.48,0,6,0,6.67-2.85.14-.65.46-3.5.69-4.05a1.9,1.9,0,0,1,1.84-1,2.29,2.29,0,0,1,2.49,2.57c0,2.12-.42,6.81-1.84,8.42s-3.22,1.71-9.8,1.71c-5.15,0-7.73,0-7.73-5.16V73.08c0-3.68,1.43-5.11,5.15-5.11Z"/><path class="cls-2" d="M401.75,92.08a2.37,2.37,0,1,1-4.74,0V71.65c-1,1.47-1.56,2.16-2.66,2.16A2.72,2.72,0,0,1,391.82,71a3,3,0,0,1,.78-2c2.21-3.22,4.6-6.77,6.67-15.37.32-1.29.6-2.34,2.3-2.34.73,0,2.53.32,2.53,2a44.66,44.66,0,0,1-2.35,8.7Zm3.78-28.94a2.07,2.07,0,1,1,0-4.14h27.6a2.07,2.07,0,1,1,0,4.14Zm27.64,25.17c0,3.81-1.47,5.1-5.1,5.1H411c-3.59,0-5.11-1.29-5.11-5.1V84.07c0-3.81,1.52-5.1,5.11-5.1h17.07c3.45,0,5.1,1.15,5.1,5.1ZM408.52,69.77a1.83,1.83,0,0,1-2.12-2c0-1.84,1.29-2,2.12-2h22a1.82,1.82,0,0,1,2.11,2c0,1.89-1.24,2-2.11,2Zm0,6.67a2,2,0,1,1,0-4h21.94a2,2,0,1,1,.05,4Zm.27-20a2,2,0,1,1,0-4h21.44a1.86,1.86,0,0,1,2.16,2,1.85,1.85,0,0,1-2.16,2Zm19.6,28.06c0-.87-.28-1.65-1.66-1.65h-14.4c-1.33,0-1.61.78-1.61,1.65v3.18c0,1.06.46,1.65,1.61,1.65h14.4c1.34,0,1.66-.73,1.66-1.65Z"/><path class="cls-3" d="M163.5,38.64H106.39a9.81,9.81,0,0,0-9.68,9.87V88.62a9.81,9.81,0,0,0,9.68,9.87h23.19l11.15,11.36a1.63,1.63,0,0,0,1.8.36,1.68,1.68,0,0,0,1-1.55V98.49h20a9.81,9.81,0,0,0,9.69-9.87V48.51A9.81,9.81,0,0,0,163.5,38.64Z"/><rect x="111.05" y="51.19" width="47.8" height="4.78"/><rect x="111.05" y="66.13" width="47.8" height="4.78"/><rect x="111.05" y="81.06" width="34.06" height="4.78"/></g></g></svg>