<svg xmlns="http://www.w3.org/2000/svg" viewBox="0 0 548.36 148.81"><defs><style>.cls-1{fill:#fff;}.cls-2{fill:#231815;}</style></defs><g id="レイヤー_2" data-name="レイヤー 2"><g id="レイヤー_1-2" data-name="レイヤー 1"><rect class="cls-1" width="548.36" height="148.81" rx="15.39"/><path class="cls-2" d="M226.43,89.87c-3.63,0-4.73-1.06-4.73-4.74V82.28c0-3.73,1.1-4.78,4.73-4.78h11c3.68,0,4.73,1.1,4.73,4.78v2.85c0,2.62-.5,3.32-1.15,3.87.56,0,2.95,0,3.45,0,.83,0,2,0,2-1.65V69.21a1.58,1.58,0,0,0-1.79-1.79h-7.91v3.27a1.27,1.27,0,0,0,.69,1.28,27.74,27.74,0,0,0,3.26.1c.88,0,1.34,0,1.61-1.15s.46-1.8,1.7-1.8A1.87,1.87,0,0,1,246.12,71c0,1.43-.55,4.42-3.12,4.74-.37,0-1.71,0-2.53,0h-2.72c-3.91,0-5.1-.55-5.1-4.74V67.42h-3.36c-1.25,7.73-9,9.52-9.3,9.52a2.17,2.17,0,0,1-2-2.34,1.71,1.71,0,0,1,1.38-1.84c2.11-.79,4.64-1.8,5.65-5.34h-5.84a1.56,1.56,0,0,0-1.79,1.79V92.12a2.07,2.07,0,0,1-2.26,2.4c-1.75,0-2.48-.65-2.48-2.4V68.94c0-4.23,1.79-5.43,5.43-5.43h4a44.85,44.85,0,0,0-1.48-4.88h-7.86c-.65,0-2.4,0-2.4-2.07,0-1.84,1.25-2.16,2.4-2.16h16.7V52.88c0-1.1.41-1.93,2.2-1.93,1.94,0,2.72.41,2.72,1.93V54.4h16.65c.74,0,2.35.09,2.35,2.12s-1.43,2.11-2.35,2.11h-7.73a48.76,48.76,0,0,1-1.51,4.88h3.91c3.58,0,5.43,1.2,5.43,5.43V88.86c0,5.15-2.58,5.15-7.46,5.15a13.42,13.42,0,0,1-2.76-.14,2.26,2.26,0,0,1-1.75-2.43,3,3,0,0,1,.56-1.8,7.56,7.56,0,0,1-2.3.23ZM237,63.51c.64-2.12,1.06-4.14,1.2-4.88H225.65c.51,1.66,1,3.36,1.38,4.88Zm.92,19c0-.78-.32-1.33-1.29-1.33h-9.29A1.19,1.19,0,0,0,226,82.51v2.35c0,.82.42,1.28,1.34,1.28h9.29c1.06,0,1.29-.64,1.29-1.33Z"/><path class="cls-2" d="M280.39,88.31c0,3.91-1.56,5.1-5.1,5.1h-7.87c-3.5,0-5.11-1.19-5.11-5.1V78.14c0-3.86,1.57-5.11,5.11-5.11h7.87c3.49,0,5.1,1.2,5.1,5.11ZM298.24,64.2c0,4-1.7,5.15-5.15,5.15H272c-3.36,0-5.11-1.1-5.11-5.15V57.94c0-4,1.71-5.15,5.11-5.15h21.07c3.45,0,5.15,1.15,5.15,5.15ZM275.79,79.11a1.59,1.59,0,0,0-1.79-1.8h-5.29a1.59,1.59,0,0,0-1.8,1.8v8.18a1.6,1.6,0,0,0,1.8,1.84H274c1.24,0,1.79-.64,1.79-1.84ZM293.5,58.82A1.61,1.61,0,0,0,291.71,57H273.49a1.63,1.63,0,0,0-1.84,1.84v4.6a1.6,1.6,0,0,0,1.84,1.79h18.22a1.57,1.57,0,0,0,1.79-1.79Zm9.21,29.49c0,3.91-1.62,5.1-5.11,5.1h-8.37c-3.55,0-5.16-1.19-5.16-5.1V78.14c0-3.86,1.61-5.11,5.16-5.11h8.37c3.45,0,5.11,1.15,5.11,5.11Zm-4.56-9.2a1.59,1.59,0,0,0-1.79-1.8h-5.94a1.59,1.59,0,0,0-1.79,1.8v8.18c0,1.2.55,1.84,1.79,1.84h5.94c1.24,0,1.79-.64,1.79-1.84Z"/><path class="cls-2" d="M318.43,85.64c0,1.29-1.28,4-1.93,5.24-1.47,3-1.93,3.32-2.85,3.32a2.19,2.19,0,0,1-2.26-2c0-.65.1-.83,1.11-2.53a24,24,0,0,0,2.07-4.47c.32-.78.64-1.38,1.79-1.38C317,83.84,318.43,84.26,318.43,85.64Zm7.23-7.32c0,3.82-1,4.74-4.74,4.74h-3c-3.82,0-4.79-.92-4.79-4.74V57.21c0-3.82.92-4.79,4.79-4.79h3c3.72,0,4.74.88,4.74,4.79Zm-8.38-16.79H322V57.76a.88.88,0,0,0-1-1H318.3a.89.89,0,0,0-1,1ZM322,65h-4.74V70H322Zm-4.74,8.65v4.23a.91.91,0,0,0,1,1H321a.91.91,0,0,0,1-1V73.63Zm7.69,13c.18.32,1.1,2.21,1.61,3.36a3.28,3.28,0,0,1,.41,1.47c0,1.47-1.56,1.84-2.16,1.84-1.11,0-1.34-.5-2.35-2.76-.23-.55-1.47-3.08-1.7-3.63a4.29,4.29,0,0,1-.28-1.29c0-1.11,1.11-1.66,2.21-1.66C323.63,84,324,84.63,325,86.65ZM342.4,71.56h4.83c3.77,0,4.79.88,4.79,4.74v7.08h1a1.53,1.53,0,0,1,1.61,1.75c0,1-.41,1.75-1.61,1.75h-1v2.39c0,4.51-1.38,4.79-6.12,4.79-2.58,0-4,0-4-2,0-1.88,1.47-1.88,2.3-1.88.41,0,2.35,0,2.71,0a1.11,1.11,0,0,0,1-1.24v-2H333v5.43c0,.83,0,2.25-2.07,2.25-1.89,0-2.07-1.19-2.07-2.11V86.88h-1.2a1.52,1.52,0,0,1-1.61-1.7,1.59,1.59,0,0,1,1.61-1.8h1.2V76.3c0-3.77.88-4.74,4.74-4.74h4.78v-2h-9.89c-.37,0-2,0-2-1.71s1.56-1.7,2-1.7h4.33V63.37h-2.86c-.82,0-1.65-.27-1.65-1.52,0-.87.18-1.74,1.65-1.74h2.86V57.67H329.2c-.51,0-2.07,0-2.07-1.75,0-1.47,1.1-1.75,2.07-1.75h3.59V52.84c0-.79.27-1.71,1.93-1.71,1.84,0,2.21.74,2.21,1.71v1.33h6.85V52.88c0-.46,0-1.75,2-1.75s2.25.88,2.25,1.75v1.29h3.54c.42,0,2.07,0,2.07,1.75,0,1.47-1.1,1.75-2.07,1.75h-3.54v2.44h2.85a1.63,1.63,0,1,1,0,3.26h-2.85v2.76h4.51a1.7,1.7,0,0,1,2,1.7c0,1.29-.83,1.71-2,1.71H342.4Zm-4,5.89V74.78h-4.09A1.13,1.13,0,0,0,333,76.07v1.38Zm0,3.17H333v2.76h5.38Zm5.43-23h-6.85v2.44h6.85Zm0,5.7h-6.85v2.76h6.85ZM342.4,77.45h5.43V76.07a1.13,1.13,0,0,0-1.24-1.29H342.4Zm5.43,3.17H342.4v2.76h5.43Z"/><path class="cls-2" d="M371.33,57.9a2.42,2.42,0,1,1,0-4.83h9.48c5.48,0,5.61,2.11,6.07,7.59.83,9.93,4.83,19.64,14.59,26.54.46.32,2.62,1.61,3,1.93a2.07,2.07,0,0,1,.64,1.57,3,3,0,0,1-2.85,3.08c-1.52,0-4.1-2.07-5.66-3.4a35.16,35.16,0,0,1-12.51-20.8,35.9,35.9,0,0,1-9,17.35c-3.36,3.45-8.42,6.85-10,6.85a2.89,2.89,0,0,1-2.71-2.94c0-1.25.73-1.75,1.84-2.39a31.64,31.64,0,0,0,15.41-18.91,39.12,39.12,0,0,0,1.7-9.62c0-2-1-2-2.39-2Z"/><path class="cls-2" d="M170.79,42.6a4.7,4.7,0,0,0-3.62-1.71H106.38l-2.07-7.11h0a9.09,9.09,0,0,0-6.8-6.29L90.07,25.9a2.33,2.33,0,0,0-1,4.55l7.43,1.6a4.45,4.45,0,0,1,3.32,3.06l13.58,46.65c-.31.15-.61.3-.89.47a9.44,9.44,0,0,0-3.43,3.53,9.79,9.79,0,0,0-1.19,4.49h0v.24h0a9.65,9.65,0,0,0,9.65,9.41h43.69a2.33,2.33,0,1,0,0-4.66H117.57a5,5,0,0,1-5-4.87,5,5,0,0,1,1.07-3,4.77,4.77,0,0,1,1.28-1.11,6,6,0,0,1,1.81-.69l43.9-7.15a7,7,0,0,0,5.73-5.51l5.37-26.4h0a4.88,4.88,0,0,0,.09-.93A4.71,4.71,0,0,0,170.79,42.6Zm-9,29.35a2.33,2.33,0,0,1-1.91,1.84L118,80.62,107.74,45.55h59.44Z"/><path class="cls-2" d="M123,103.69a6.48,6.48,0,0,0-3.6-1.1,6.44,6.44,0,0,0-3.6,11.77,6.46,6.46,0,0,0,3.6,1.1A6.44,6.44,0,0,0,125.8,109a6.54,6.54,0,0,0-.5-2.51A6.64,6.64,0,0,0,123,103.69ZM121.76,110a2.61,2.61,0,0,1-.94,1.14,2.63,2.63,0,0,1-2.46.24,2.64,2.64,0,0,1-1.14-1,2.53,2.53,0,0,1-.44-1.44,2.57,2.57,0,0,1,1.14-2.15,2.52,2.52,0,0,1,1.45-.45,2.61,2.61,0,0,1,1,.21A2.59,2.59,0,0,1,122,109,2.6,2.6,0,0,1,121.76,110Z"/><path class="cls-2" d="M158.24,103.69a6.43,6.43,0,0,0-3.6-1.1,6.45,6.45,0,0,0-5.33,2.84,6.43,6.43,0,0,0-1.1,3.6,6.35,6.35,0,0,0,.51,2.5A6.42,6.42,0,0,0,160,112.62a6.27,6.27,0,0,0,1.1-3.59,6.35,6.35,0,0,0-.5-2.51A6.5,6.5,0,0,0,158.24,103.69ZM157,110a2.59,2.59,0,0,1-2.39,1.58,2.6,2.6,0,0,1-1-.2,2.64,2.64,0,0,1-1.14-1,2.53,2.53,0,0,1-.44-1.44,2.56,2.56,0,0,1,.2-1,2.53,2.53,0,0,1,.95-1.14,2.46,2.46,0,0,1,1.44-.45,2.62,2.62,0,0,1,2.15,1.15,2.62,2.62,0,0,1,.45,1.45A2.8,2.8,0,0,1,157,110Z"/></g></g></svg>