<svg xmlns="http://www.w3.org/2000/svg" viewBox="0 0 548.36 148.81"><defs><style>.cls-1{fill:#fff;}.cls-2{fill:#231815;}.cls-3{fill:none;}</style></defs><g id="レイヤー_2" data-name="レイヤー 2"><g id="レイヤー_1-2" data-name="レイヤー 1"><rect class="cls-1" width="548.36" height="148.81" rx="15.39"/><path class="cls-2" d="M220.82,44.48c-1,0-1.63-.25-1.66-1.59-3,2-6.41,3.59-7.15,3.59a2,2,0,0,1-2-2.22c0-.66.23-1.22,1.3-1.66a35,35,0,0,0,4.51-2c-.48-.52-.66-.7-2.48-2.44a1.43,1.43,0,0,1-.59-1.11,2,2,0,0,1,1.89-1.81,1.84,1.84,0,0,1,1.18.52A30.47,30.47,0,0,1,219,38.6c1.19-.89,3.85-3.11,3.85-3.59s-.59-.44-.81-.44h-6c-.78,0-1.67-.26-1.67-1.52,0-1.07.67-1.52,1.67-1.52h10.36c1.44,0,2,0,2.81.71.44.37,2,2.33,2.41,2.7,1.55-1.44,2.36-2.37,2.36-2.37,1.45-1.44,1.45-1.59,2.11-1.59a2,2,0,0,1,2,1.74c0,.59-.29,1-1.44,2.14-.48.52-1.55,1.63-2.51,2.48a18.73,18.73,0,0,0,2,1.52c1-.89,2.4-2.37,3.22-3.29,1.33-1.52,1.4-1.56,2-1.56a2.05,2.05,0,0,1,2,1.85c0,.37,0,.67-1.3,2-.37.37-1.66,1.74-2.92,2.81a23.68,23.68,0,0,0,4.22,1.82c.62.22,1.36.48,1.36,1.66a2.14,2.14,0,0,1-1.88,2.26c-1.85,0-6-2.59-7.11-3.33-.11,1.29-1,1.4-1.7,1.4ZM242.21,61c.63,0,1.89.07,1.89,1.7,0,1.26-.41,1.88-1.89,1.88h-29.6c-.56,0-1.93,0-1.93-1.66,0-1.26.45-1.92,1.93-1.92h7.18c-.41-.34-.45-.45-.86-1.56a7.13,7.13,0,0,1-.63-2.18,1,1,0,0,1,.6-.93h-1.63c-3,0-3.18-1.55-3.18-3.62V50.48c0-2.89.66-3.63,3.62-3.63h19.47c2.92,0,3.62.71,3.62,3.63v2.26c0,2-.22,3.62-3.14,3.62H236a1.06,1.06,0,0,1,.63,1,5.18,5.18,0,0,1-.37,1.41c-.19.55-.56,1.48-.82,2.22Zm-5.29-10.25a.88.88,0,0,0-1-1h-17a.88.88,0,0,0-1,1V52.4c0,.6.22,1,1,1h17a.88.88,0,0,0,1-1Zm-3.81-9.59a35.78,35.78,0,0,1-5.74-5.84,31.27,31.27,0,0,1-5.88,5.84ZM231.44,61a30.4,30.4,0,0,0,1.11-3.41c.26-.92.41-1,.7-1.26H221.6a1,1,0,0,1,.55.63,16.4,16.4,0,0,1,1,3.26.88.88,0,0,1-.37.78Z"/><path class="cls-2" d="M254.05,50h-4.33c-1.08,0-1.82-.41-1.82-1.6s.67-1.62,1.82-1.62h4.33V43.45h-2.48c-.63,0-1.7-.11-1.59-1.89a1.38,1.38,0,0,1-.74.22c-1.08,0-1.78-1.29-1.78-2.07s.59-1.4,1.89-2.55a26,26,0,0,0,4.18-4.92A2.59,2.59,0,0,1,256,30.83c1.44,0,1.7.33,3.33,2.52a30.1,30.1,0,0,0,3,3.51,2,2,0,0,1,.71,1.37A2,2,0,0,1,261.26,40c-1,0-2.18-1.51-4.73-4.95-.19-.23-.34-.34-.52-.34s-.37.15-.74.71a34.83,34.83,0,0,1-3.74,4.77h7.85A1.4,1.4,0,0,1,261,41.82c0,1.56-1,1.63-1.62,1.63h-2.19v3.37h3.41c1,0,1.62.48,1.62,1.51S262,50,260.6,50h-3.41v9.54c1.08-.22,2.89-.59,3.18-.59a1.12,1.12,0,0,1,1.11.67c.41-.26,2.3-1.34,2.71-1.6s2.36-1.66,2.73-1.92a1.59,1.59,0,0,1,.89-.33c.82,0,1.41,1,1.41,1.77s-.45,1.19-1.45,2a40.47,40.47,0,0,1-4.29,3,2.78,2.78,0,0,1-1.44.48,1.43,1.43,0,0,1-1.37-.89c-2.33,1-10.4,2.48-11.43,2.48-1.56,0-1.56-1.66-1.56-1.85,0-1.48.78-1.66,3.07-2.07.52-.11,2.82-.52,3.3-.59Zm-2,2.88a30.74,30.74,0,0,1,.67,4.77,1.48,1.48,0,0,1-1.7,1.6c-1.23,0-1.23-.34-1.52-2.89,0-.48-.48-3.48-.48-3.59,0-.67.44-1.33,1.63-1.33C251.53,51.48,251.83,52,252,52.92Zm10.25-.48a32,32,0,0,1-1,4.44c-.26.74-.37,1.3-1.3,1.3-.22,0-1.52-.12-1.52-1.26,0-.37.74-3.22.85-3.85.26-1.33.37-1.85,1.37-1.85C260.86,51.22,262.26,51.26,262.26,52.44Zm11.36,9c0,3.88-1.18,3.85-5.62,3.81-1.26,0-2.56,0-2.56-1.89s1.11-1.85,2-1.85c.26,0,1.52.08,1.78,0,.59,0,.89-.33.89-1.22V46.63h-6.48c-.48,0-1.59,0-1.59-1.59s.93-1.66,1.59-1.66h12.55v-2.6H265.59a1.32,1.32,0,0,1-1.52-1.47,1.3,1.3,0,0,1,1.52-1.48h10.55v-1.6a.92.92,0,0,0-1-1H265c-.52,0-1.59,0-1.59-1.59,0-1.34.74-1.63,1.59-1.63h11.13c2.59,0,3.56,1.07,3.56,3.74v7.77h1.4A1.35,1.35,0,0,1,282.58,45a1.39,1.39,0,0,1-1.6,1.59h-7.36v1.44a18.87,18.87,0,0,0,1.74,4.37,27.65,27.65,0,0,0,2.89-3c1-1.15,1.14-1.41,1.81-1.41a1.73,1.73,0,0,1,1.66,1.67c0,.85-.4,1.36-1.62,2.73a27.34,27.34,0,0,1-3,2.93,24.69,24.69,0,0,0,4.36,4.44c1,.85,1,1.14,1,1.55a2,2,0,0,1-1.84,2c-.67,0-1.45-.52-2.85-2a19.2,19.2,0,0,1-4.15-6.55ZM267,50c.59.74,1.63,2.1,1.63,2.88a1.8,1.8,0,0,1-1.74,1.63c-.63,0-1-.48-1.45-1.22-.29-.44-1.77-2.26-2.07-2.7a1.82,1.82,0,0,1-.48-1.15,1.76,1.76,0,0,1,1.52-1.59C265,47.89,265.26,47.89,267,50Z"/><path class="cls-2" d="M292.82,39.93a1.46,1.46,0,0,0-1.66,1.63V63.62a1.68,1.68,0,0,1-1.85,1.92c-1.41,0-2.07-.44-2.07-1.92V41.34c0-4,1.37-5.11,5.07-5.11h8.51V32.79a1.68,1.68,0,0,1,1.92-1.92c1.48,0,2.15.52,2.15,1.92v3.44h8.58c3.66,0,5.11,1.08,5.11,5.11V60.17c0,1.67-.26,3.67-2,4.56-1.07.55-2.07.55-4.74.55a11.38,11.38,0,0,1-3.25-.18,2,2,0,0,1-1.08-1.85c0-1.52.93-1.93,2.22-1.93.56,0,3.11.08,3.63,0,.93-.11,1.26-.78,1.26-1.63V41.56A1.46,1.46,0,0,0,313,39.93h-7.8c1.22,7.4,5.55,11.18,8,13.32.71.6,1.08,1,1.08,1.78a2.32,2.32,0,0,1-2.07,2.29c-.52,0-1.11,0-3.33-2.25A23.13,23.13,0,0,1,303,45.6a21.35,21.35,0,0,1-4.18,7.77c-.48.51-3.66,3.84-5.33,3.84a2.21,2.21,0,0,1-2-2.25c0-.89.63-1.41,1.3-1.93,2.59-2,5.07-3.81,6.81-8.84a23.75,23.75,0,0,0,1-4.26Z"/><path class="cls-2" d="M355.76,34.24c.52,0,1.93,0,1.93,1.73,0,1.37-.52,2-1.93,2H331.67a1.66,1.66,0,0,0-1.88,1.88V48c0,3.63-.3,9.73-2.19,14.47-.81,2.07-1.37,2.59-2.33,2.59a2.08,2.08,0,0,1-2.22-2c0-.52.11-.85,1.33-3.7,1-2.3,1.56-6.22,1.56-11.44V39.12c0-3.66,1.4-4.88,4.85-4.88h8.1V32.46c0-1.44.89-1.81,1.92-1.81s2.15.11,2.15,1.81v1.78Zm-14.95,5.69c0-.51,0-1.74,1.78-1.74,1.55,0,2,.52,2,1.74v2.59h11.14a1.64,1.64,0,0,1,1.89,1.78c0,1.37-.78,1.78-1.89,1.78H344.62v4.55h6.59c2.85,0,4.11,1,4.11,4.1v6c0,3.22-1.37,4.11-4.11,4.11H335.52c-2.74,0-4.11-.89-4.11-4.11v-6c0-3.07,1.22-4.1,4.11-4.1h5.29Zm10.66,15.66A1.31,1.31,0,0,0,350,54.11H336.67c-1,0-1.45.44-1.45,1.48v4.18a1.29,1.29,0,0,0,1.45,1.48H350a1.31,1.31,0,0,0,1.48-1.48Z"/><path class="cls-2" d="M383.81,34.94V32.35c0-.45,0-1.63,1.7-1.63s1.85.81,1.85,1.63v2.59h3.77c-.44-.41-1.11-1.07-1.51-1.44a1.54,1.54,0,0,1-.6-1.08c0-1,1.19-1.51,1.93-1.51.37,0,.59,0,2.07,1.29,1.15,1,1.33,1.3,1.33,1.78a1.53,1.53,0,0,1-.33,1c.59,0,1.78,0,1.78,1.66s-1.08,1.74-1.74,1.74h-6.7v2.52h3.22c3.07,0,3.88.7,3.88,3.81V61.43c0,3.11-.85,3.85-4.14,3.85-.74,0-2.15,0-2.15-2,0-1.48.63-1.51,1.93-1.59a.89.89,0,0,0,1-1V56.84h-3.7V63.5c0,.37,0,1.71-1.78,1.71a1.54,1.54,0,0,1-1.77-1.71V56.84h-3.74V64a1.43,1.43,0,0,1-1.59,1.59c-1.3,0-1.63-.74-1.63-1.59V44.67c0-3.11.81-3.81,3.85-3.81h3.11V38.34h-6.37a3.2,3.2,0,0,1-.77-.07,1.93,1.93,0,0,1-1.78,2.11c-1.41,0-3.89-3.37-5.07-5.07-.33-.45-.44-.63-.67-.63s-.22.07-.55.63A28.51,28.51,0,0,1,365,40.19c-.63.67-1.63,1.7-2.4,1.7a2.05,2.05,0,0,1-1.82-2,1.9,1.9,0,0,1,.86-1.44,21.54,21.54,0,0,0,5.1-6.36,2.52,2.52,0,0,1,2.37-1.37,2.68,2.68,0,0,1,2.41,1.29,20.88,20.88,0,0,0,4.25,4.81c-.11-1.88,1.11-1.92,1.7-1.92ZM367.3,45.37h-3.25a1.63,1.63,0,1,1,0-3.25h3.25V40.3a1.73,1.73,0,1,1,3.45,0v1.82h2.92a1.46,1.46,0,0,1,1.7,1.59,1.48,1.48,0,0,1-1.7,1.66h-2.92V48.3h3.88c.89,0,1.7.37,1.7,1.59s-.59,1.63-1.7,1.63h-11.8c-.93,0-1.74-.37-1.74-1.6s.63-1.62,1.74-1.62h4.47ZM375,61.1c0,3-.74,3.85-3.85,3.85h-4.73c-3.08,0-3.82-.78-3.82-3.85V57.47c0-3,.71-3.81,3.82-3.81h4.73c3.07,0,3.85.74,3.85,3.81Zm-3.37-3.33c0-.67-.29-1-1-1h-3.47a.92.92,0,0,0-1,1v3a.92.92,0,0,0,1,1h3.47a.91.91,0,0,0,1-1Zm8.44-10.21h3.74V44.08h-2.74c-.67,0-1,.33-1,1Zm3.74,2.88h-3.74V54h3.74Zm7.25-2.88V45.11c0-.66-.3-1-1-1h-2.7v3.48Zm0,2.88h-3.7V54h3.7Z"/><path class="cls-2" d="M426.25,53.33h5.51a1.67,1.67,0,1,1,0,3.33h-5.51V61.1c0,4.22-1.37,4.22-6.81,4.22a24.43,24.43,0,0,1-3.85-.19,1.82,1.82,0,0,1-1.07-1.77c0-1.74,1.25-1.74,2.18-1.74.67,0,3.44.07,4,.07,1,0,1.67-.15,1.67-1.48V56.66H407.34c.55.07.66.22,2.7,2.18.33.34,2.4,2.67,2.4,3.52,0,1.14-1.4,1.88-2.22,1.88s-.81,0-3-2.77l-1.71-2.11a2.07,2.07,0,0,1-.62-1.11c0-.63.7-1.44,2-1.59h-6.36a1.47,1.47,0,0,1-1.7-1.67,1.46,1.46,0,0,1,1.7-1.66H422.4v-2H405.93c-2.55,0-3.7-.93-3.7-3.74V42.15c0-2.81,1.11-3.73,3.7-3.73h8.22V36.53H400.83a1.48,1.48,0,0,1-1.71-1.63,1.49,1.49,0,0,1,1.71-1.66h13.32V32.05c0-1.14,1.07-1.37,1.88-1.37,1.22,0,2.08.34,2.08,1.37v1.19h13.32a1.47,1.47,0,0,1,1.7,1.66c0,1.63-1.15,1.63-1.7,1.63H418.11v1.89h8.25c2.55,0,3.73.92,3.73,3.73v5.48c0,3.11-1.44,3.74-3.84,3.74Zm-12.1-9.81v-2.4H407a.94.94,0,0,0-1,1v1.37Zm0,2.59h-8.22v1.45a.92.92,0,0,0,1,1h7.18Zm4-2.59h8.17V42.15a.9.9,0,0,0-1-1h-7.17Zm0,2.59v2.48h7.17c.93,0,1-.59,1-1V46.11Z"/><path class="cls-2" d="M456.25,54.29v9.07c0,.7-.11,1.88-1.74,1.88-1.4,0-2-.44-2-1.88V54.29H444a22.78,22.78,0,0,1-2.3,8.55c-1.14,2.33-1.77,2.63-2.62,2.63a2.33,2.33,0,0,1-2.37-2.19,2.28,2.28,0,0,1,.37-1.11,19.61,19.61,0,0,0,2.7-6.88,38.57,38.57,0,0,0,.44-5.18V36.68c0-3.37,1.45-4.33,4.33-4.33H464.8c2.85,0,4.33.89,4.33,4.33V61.17c0,4.15-2.11,4.15-5.88,4.15-2.22,0-3.63,0-3.63-2.11a1.66,1.66,0,0,1,1.81-1.89c.41,0,2.19,0,2.56,0,.88-.07,1.18-.55,1.18-1.55V54.29Zm-3.77-12.77V36h-6.85a1.29,1.29,0,0,0-1.44,1.48v4.07Zm0,3.41h-8.29v5.88h8.29Zm3.77-3.41h8.92V37.45c0-1-.44-1.48-1.44-1.48h-7.48Zm8.92,3.41h-8.92v5.88h8.92Z"/><path class="cls-2" d="M237.73,111.71c.52.67.82.92.82,1.52a2.16,2.16,0,0,1-2.22,2c-.71,0-1-.34-1.67-1.15l-2.37-2.89a15.89,15.89,0,0,1-6.21,1.23,14.88,14.88,0,1,1,9.58-3.19Zm-11.25-7.66c-.55-.7-.77-1-.77-1.48a2.14,2.14,0,0,1,2.14-2c.7,0,1,.33,1.59,1l3.48,4.22a11.52,11.52,0,0,0,3.92-8.77c0-6-4.4-11.17-10.73-11.17s-10.73,5.14-10.73,11.17,4.48,11.22,10.7,11.22a10.91,10.91,0,0,0,3.44-.56Z"/><path class="cls-2" d="M266.55,108.45a3.43,3.43,0,0,1,.89,2c0,1.23-1.37,2-2.44,2s-1.33-.56-2-1.48L255,99.17H252.9V110.3c0,.48,0,2.08-2.18,2.08-1.52,0-2.22-.67-2.22-2.08V86.88c0-1.55,0-4.44,4.25-4.44h4.15a12,12,0,0,1,5.73,1A8.21,8.21,0,0,1,259.71,99ZM256.49,95.32c1.22,0,5.88,0,5.88-4.37s-3.7-4.44-5.84-4.44h-2.34c-.88,0-1.29.22-1.29,1.3v7.51Z"/><path class="cls-2" d="M296.56,85.33c3.26,0,4.74,1.14,4.74,4.62v16.1c0,3.88-2,4.62-4.74,4.62H275.88a2,2,0,1,1,0-4h19.39c1.73,0,1.85-1,1.85-1.85V91.17c0-.85-.15-1.81-1.85-1.81H276.13a2,2,0,1,1,0-4Z"/><path class="cls-2" d="M338.89,95.72a2,2,0,1,1,0,4H311a2,2,0,1,1,0-4Z"/><path class="cls-2" d="M353.91,112.15c0,.67,0,2.11-2.15,2.11s-2.18-1.26-2.18-2.11V83.29c0-.59,0-2.11,2.18-2.11s2.15,1.41,2.15,2.11v8.4a83,83,0,0,1,14.43,7.88c1.15.82,1.59,1.33,1.59,2.15a2.28,2.28,0,0,1-2.14,2.33c-.82,0-1.52-.48-3.07-1.59a63.16,63.16,0,0,0-10.81-6.14ZM366.2,88.4c1.37,1.48,1.55,1.85,1.55,2.37a1.76,1.76,0,0,1-1.59,1.74c-.63,0-.85-.3-1.63-1.23A25.58,25.58,0,0,0,361.2,88c-.55-.44-.67-.74-.67-1.11a1.79,1.79,0,0,1,1.74-1.7C363.13,85.14,365.16,87.25,366.2,88.4Zm4.25-4c1.37,1.52,1.52,1.89,1.52,2.41a1.8,1.8,0,0,1-1.67,1.7c-.55,0-.77-.26-1.55-1.26a22.6,22.6,0,0,0-3.29-3.37,1.37,1.37,0,0,1-.63-1.07,1.78,1.78,0,0,1,1.74-1.74C367.38,81.07,369.45,83.29,370.45,84.4Z"/><g id="QR"><rect class="cls-3" x="92.98" y="28.78" width="87.31" height="87.31" rx="2.93"/><path class="cls-2" d="M98.9,69h34.91V34.08H98.9ZM108,43.2h16.67V59.87H108Z"/><rect class="cls-2" x="111.83" y="47.01" width="9.05" height="9.05"/><path class="cls-2" d="M98.9,110.78h34.91V75.87H98.9ZM108,85h16.67v16.67H108Z"/><rect class="cls-2" x="111.83" y="88.8" width="9.05" height="9.05"/><path class="cls-2" d="M139.46,69h34.91V34.08H139.46Zm9.12-25.79h16.67V59.87H148.58Z"/><rect class="cls-2" x="152.39" y="47.01" width="9.05" height="9.05"/><rect class="cls-2" x="139.46" y="75.87" width="17.46" height="17.46"/><rect class="cls-2" x="156.91" y="93.33" width="17.46" height="17.46"/><rect class="cls-2" x="139.46" y="102.05" width="8.73" height="8.73"/><rect class="cls-2" x="165.64" y="75.87" width="8.73" height="8.73"/><rect class="cls-2" x="156.91" y="84.6" width="8.73" height="8.73"/><rect class="cls-2" x="148.18" y="93.33" width="8.73" height="8.73"/></g></g></g></svg>