<svg xmlns="http://www.w3.org/2000/svg" viewBox="0 0 397.35 52.38"><defs><style>.cls-1{fill:#fff;}</style></defs><g id="レイヤー_2" data-name="レイヤー 2"><g id="レイヤー_1-2" data-name="レイヤー 1"><path class="cls-1" d="M41.28,43.38C41.28,49,39,50.67,34,50.67H7.29C2.26,50.67,0,49,0,43.38V10.16C0,4.75,2.1,2.87,7.29,2.87H34c5.13,0,7.28,1.82,7.28,7.29ZM35.16,23.62V11.31A2.49,2.49,0,0,0,32.34,8.5H8.89a2.5,2.5,0,0,0-2.82,2.81V23.62ZM6.07,29.2V42.28a2.51,2.51,0,0,0,2.82,2.81H32.34a2.51,2.51,0,0,0,2.82-2.81V29.2Z"/><path class="cls-1" d="M102.21,6.18c.83,0,2.81.06,2.81,2.65,0,2-.71,3-2.81,3h-20v7.51H99.39c.89,0,2.87.05,2.87,2.65,0,2.09-.82,2.92-2.87,2.92H58.83c-.77,0-2.87,0-2.87-2.65,0-1.93.66-2.92,2.87-2.92H76.05V11.81h-20a2.48,2.48,0,0,1-2.87-2.7c0-2.38,1.21-2.93,2.87-2.93h20V2.37C76.05.94,76.77,0,78.86,0c1.93,0,3.31.33,3.31,2.37V6.18ZM98.84,44.43c0,5-2,6.51-6.46,6.51H65.84c-4.42,0-6.46-1.54-6.46-6.51v-8.5c0-5,2.1-6.51,6.46-6.51H92.38c4.31,0,6.46,1.43,6.46,6.51ZM93,36.87c0-1.44-.72-2.15-2.21-2.15H67.44c-1.49,0-2.21.71-2.21,2.15v6.51a1.94,1.94,0,0,0,2.21,2.21H90.78A1.94,1.94,0,0,0,93,43.38Z"/><path class="cls-1" d="M134.44,37c-1.33,3.31-4,9.44-9.22,9.44-5,0-11.48-7.17-11.48-18.1,0-13.3,9.93-24.18,25.11-24.18,14.9,0,22.68,10.6,22.68,21.81,0,16.72-15.34,23-17.77,23a3.09,3.09,0,0,1-3-3.2c0-1.44.44-1.77,3.42-3.26,5.74-2.81,11.09-7.61,11.09-16.61,0-2.32-.22-14.4-14.46-16.17C140.23,14.29,138.8,26,134.44,37Zm-14.85-8.39c0,6.24,3,11.48,5.41,11.48,2.15,0,3.86-4.69,5.08-8.33A107.45,107.45,0,0,0,134.82,10C120.69,13.08,119.59,25.22,119.59,28.64Z"/><path class="cls-1" d="M187.3,31.62h7.95c.77,0,2.87,0,2.87,2.71,0,2.43-1.87,2.59-2.87,2.59H187.3v5.8c2.82-.22,3.26-.28,7.29-.77a16.42,16.42,0,0,1,1.66-.12c1.82,0,2.42,1.16,2.42,2.71,0,2.37-1.43,2.59-5,3-2.32.34-18.55,1.88-20.65,1.88-1.54,0-2.7-.77-2.7-2.92,0-2.54,1.82-2.65,3.59-2.76,2.87-.17,3-.17,8.06-.56V36.92h-7.9a2.44,2.44,0,0,1-2.81-2.54c0-2.09,1.1-2.76,2.81-2.76H182V27h-4.36c-3.7,0-5.58-1.27-5.58-5.57V7.78c0-4.3,1.88-5.52,5.58-5.52h14.12c3.7,0,5.58,1.22,5.58,5.52V21.47c0,4.3-1.82,5.57-5.58,5.57H187.3ZM176.82,12.53H182V7.17h-3.65a1.37,1.37,0,0,0-1.54,1.55Zm0,4.08V20.7a1.37,1.37,0,0,0,1.54,1.54H182V16.61Zm15.84-4.08V8.72c0-1.1-.55-1.55-1.49-1.55H187.3v5.36Zm0,4.08H187.3v5.63h3.87c.94,0,1.49-.44,1.49-1.54Zm16.61,3.59c-2.26-2.1-5.08-4.08-5.63-4.53-2.1-1.49-2.65-1.82-2.65-3A2.87,2.87,0,0,1,203.75,10a4.07,4.07,0,0,1,2.15.83c.78.5,1.72,1.11,3.7,2.6,1-1.05,4.42-4.53,4.42-5.52,0-.72-.83-.72-1.22-.72H201.71c-1.11,0-2.54-.22-2.54-2.48a2.2,2.2,0,0,1,2.54-2.49h13.91c2.21,0,4.91.28,4.91,3.76,0,1.82-.77,3.25-2.59,5.46a64.93,64.93,0,0,1-4.59,4.86c1.61,1.27,2.05,1.76,2.05,2.81a2.18,2.18,0,0,1-.28,1.05h1.16c2.32,0,5.52,0,5.52,4.08a23.44,23.44,0,0,1-1.38,6.57c-1.6,4.91-2,5.36-3.42,5.36-1.05,0-2.76-.61-2.76-2.05,0-1.21,2.59-6.45,2.59-7.78,0-.88-1-.88-1.49-.88h-3V45.37c0,6.12-2.32,6.29-7.9,6.29-2.92,0-3.25,0-4.08-.28a2.83,2.83,0,0,1-1.77-2.92,2.33,2.33,0,0,1,2.6-2.65l3.25,0c1.33,0,2.43-.22,2.43-2.31v-18h-6.4c-1,0-2.59-.11-2.59-2.65s1.82-2.65,2.59-2.65Z"/><path class="cls-1" d="M242.27,2.7c0-.66,0-2.37,2.65-2.37,2.1,0,3,.61,3,2.37V4.08H261V2.7c0-.66,0-2.37,2.59-2.37,2.26,0,3,.72,3,2.37V4.08h11.09c.66,0,2.76,0,2.76,2.43,0,2.1-1.6,2.38-2.76,2.38H266.67v1.38c0,1.87-1.55,2.2-2.71,2.2-2.65,0-2.92-1.16-2.92-2.2V8.89H248v1.38c0,1.93-1.72,2.2-2.71,2.2-2.65,0-3-1.1-3-2.2V8.89H231.56c-.66,0-2.81,0-2.81-2.38,0-2,1.43-2.43,2.81-2.43h10.71Zm15.07,27.43h20.25c.83,0,2.82.06,2.82,2.49,0,1.87-.66,2.76-2.82,2.76H261.2a44,44,0,0,0,13.36,8.11c4.63,1.77,5.41,2,5.41,3.7,0,1.27-1.05,3.2-2.76,3.2s-12.09-3.92-19.87-12.58V49.4c0,1-.11,2.81-2.65,2.81-2,0-3-.61-3-2.81V38c-6,6.51-16.89,12.53-19.76,12.53-1.88,0-2.81-1.88-2.81-3.15a2.41,2.41,0,0,1,1.71-2.32c6.23-2.54,11.48-4.69,17.05-9.71H231.56c-.82,0-2.81,0-2.81-2.6,0-2.31,1.49-2.65,2.81-2.65h20.15V29A2.37,2.37,0,0,1,253,26.49c-.33-.55-1.66-3.37-2-4-1.05-2.1-1.16-2.32-1.16-2.87a2.39,2.39,0,0,1,1-1.88c-5.19.17-10.43.28-15.62.28-1.6,0-3.86,0-3.86-2.65,0-2.32,2-2.32,3-2.32h11.81c6,0,14.79-.28,20.59-.77,1.26-.11,7.17-.77,7.78-.77a2.38,2.38,0,0,1,1.93.71,3.14,3.14,0,0,1,.61,1.82c0,2.05-1.66,2.21-4.69,2.49-6,.55-12.09.88-18.11,1.1.83.83,3.59,5.85,3.59,7.23a2.09,2.09,0,0,1-1.32,1.93,2.58,2.58,0,0,1,.77,2.16Zm-15.57-7.5c.56,1.1,1.61,3.09,1.61,4.08,0,1.71-2,2.54-3,2.54-1.6,0-1.93-.88-2.59-2.37-.12-.22-2-3.81-2.27-4.31a4,4,0,0,1-.55-1.82c0-1.49,1.77-2.43,3.2-2.43C239.24,18.32,240.06,19.32,241.77,22.63Zm29.64,3.48c-2.26,2.87-3,3.42-4.08,3.42-1.38,0-2.93-1.16-2.93-2.43,0-.88.55-1.55,1.88-3.2.72-.89,3.53-5,4.19-5.8a2.06,2.06,0,0,1,1.71-.88c1.11,0,3,.88,3,2.37S272.57,24.62,271.41,26.11Z"/><path class="cls-1" d="M292.32,13.41a79.21,79.21,0,0,1-1.21,11.65c-.33,1.76-.55,2.87-2.21,2.87a2,2,0,0,1-2.21-1.82c0-.39.78-4.14.89-5a66.91,66.91,0,0,0,.83-8.06c.11-1.71.82-1.93,2.15-1.93C292.32,11.15,292.32,12.64,292.32,13.41Zm7.12,36.43c0,.83,0,2.54-2.65,2.54-2.42,0-2.7-1.33-2.7-2.54V2.54c0-.94.11-2.54,2.65-2.54s2.7,1.38,2.7,2.54ZM304.19,11c.55,1.22,1.66,3.76,1.66,4.86a2,2,0,0,1-2.16,1.88c-1.1,0-1.21-.22-2.37-3.65-.17-.44-.94-2.48-1.05-2.92a2.4,2.4,0,0,1-.11-.72A1.78,1.78,0,0,1,302,8.72C303,8.72,303.42,9.27,304.19,11Zm31.18-7.12c.67,0,2.54.06,2.54,2.16,0,1.82-1.32,2.26-2.54,2.26H324.28v2.81H334.6c1,0,2.15.33,2.15,2,0,1.32-.71,1.93-2.15,1.93H324.28v2.93h12.09c1.6,0,2.48.66,2.48,2.26s-.66,2.26-2.48,2.26H306.18c-1.33,0-2.49-.44-2.49-2.2,0-1.55.78-2.32,2.49-2.32h12.47V15H308.5c-1.72,0-2.1-.88-2.1-1.93,0-.77.11-2,2.1-2h10.15V8.28H307.5c-1.32,0-2.48-.44-2.48-2.21,0-1.54.88-2.21,2.48-2.21h11.15V2.21c0-1.55,1.1-2.15,2.81-2.15,2.16,0,2.82.82,2.82,2.15V3.86Zm-23,38.36v7.34a2.43,2.43,0,0,1-2.65,2.82c-2,0-2.93-.83-2.93-2.82V30.41c0-4.19,1.77-5.52,5.58-5.52h18.38c3.69,0,5.57,1.16,5.57,5.52V46c0,5.25-1.54,5.74-7.06,5.74-4.58,0-6.07,0-6.07-2.65s1.43-2.53,2.92-2.53c.5,0,2.82.11,3.31,0,.94-.16,1.22-.61,1.22-1.65V42.22ZM330.63,32V30.85a1.37,1.37,0,0,0-1.55-1.54H313.9a1.37,1.37,0,0,0-1.54,1.54V32Zm0,3.75H312.36v2.76h18.27Z"/><path class="cls-1" d="M368.43,5.35A2.19,2.19,0,0,1,371,7.84c0,2.37-1.49,2.54-2.54,2.54h-6.51v4.85h8.38a2.07,2.07,0,0,1,2.32,2.38c0,.82-.05,2.54-2.15,2.54h-1.6a58.77,58.77,0,0,1-1.71,6.51h3c1.27,0,2.32.55,2.32,2.48,0,1.27-.34,2.59-2.32,2.59h-8.22v5.41h6.67a2.25,2.25,0,0,1,2.6,2.54c0,2.6-1.82,2.6-2.6,2.6h-6.67v6.95c0,.77,0,2.87-2.65,2.87-2.16,0-3-.88-3-2.87V42.28h-6.35a2.36,2.36,0,0,1-2.71-2.6c0-2.48,1.83-2.54,2.71-2.54h6.35V31.73h-7.68A2.31,2.31,0,0,1,346,29.25a2.28,2.28,0,0,1,2.43-2.59h3.2a60.18,60.18,0,0,0-1.82-6.51H348a2.13,2.13,0,0,1-2.21-2.38,2.27,2.27,0,0,1,2.54-2.54h8V10.38h-6.46a2.26,2.26,0,0,1-2.6-2.49c0-2.43,1.66-2.54,2.6-2.54h6.46V2.81c0-.93,0-2.53,2.64-2.53,2.38,0,3,.77,3,2.53V5.35ZM362,26.66a39,39,0,0,0,1.43-6.51h-8.61c.33,1.15,1.6,5.73,1.82,6.51Zm16.55-.44v22.9c0,.72,0,2.87-2.54,2.87-1.87,0-2.87-.72-2.87-2.87V8.17c0-4.42,1.66-6.13,6.19-6.13h11.31c4.75,0,5.13,2.82,5.13,5,0,2.43-.44,7.84-1.76,9.88s-2.65,1.93-8.78,1.93c-1.27,0-3.14,0-3.14-2.65a2.18,2.18,0,0,1,1.1-2c.39-.22.61-.17,2.81-.17h1.16c1.66,0,2-.44,2.38-1.38a10.91,10.91,0,0,0,.6-3.75c0-.88-.16-1.49-1.54-1.49h-7.89a1.93,1.93,0,0,0-2.16,2.15V21.3h11.7c1.82,0,5.52,0,5.52,4.92,0,2.81-1.1,9.05-4.63,15.56.82.88,5.29,4.53,5.68,5.08a2.26,2.26,0,0,1,.5,1.43,3.16,3.16,0,0,1-2.93,3.2c-1.76,0-4.63-3.14-6.34-5-1.44,1.77-3.87,4.86-5.58,4.86a3,3,0,0,1-2.81-2.87,3.16,3.16,0,0,1,1.43-2.38,27,27,0,0,0,3.76-3.8c-3.32-4.86-5.3-10.21-5.3-11.93a2.33,2.33,0,0,1,2.54-2.2c1.54,0,1.93,1,2.26,2a32.08,32.08,0,0,0,3.42,7.4c1.21-2.54,3-7.4,3-10,0-1.32-1.16-1.32-1.82-1.32Z"/></g></g></svg>