<svg xmlns="http://www.w3.org/2000/svg" width="18.057" height="20.723" viewBox="0 0 18.057 20.723"><path d="M-14.687,2.861H-6.2a2.288,2.288,0,0,0,1.655-.605A2.365,2.365,0,0,0-3.857.615l.625-13.359h1.064a.725.725,0,0,0,.532-.22.748.748,0,0,0,.22-.552.725.725,0,0,0-.22-.532.725.725,0,0,0-.532-.22H-18.721a.73.73,0,0,0-.527.22.717.717,0,0,0-.225.532.74.74,0,0,0,.225.552.73.73,0,0,0,.527.22h1.064L-17.031.625a2.347,2.347,0,0,0,.688,1.636A2.3,2.3,0,0,0-14.687,2.861Zm.166-1.533a.881.881,0,0,1-.649-.259A.963.963,0,0,1-15.449.41l-.635-13.154h11.24L-5.439.41a.956.956,0,0,1-.278.664.9.9,0,0,1-.659.254Zm1.348-1.533a.621.621,0,0,0,.444-.161.516.516,0,0,0,.161-.415l-.283-9.775a.581.581,0,0,0-.176-.42.6.6,0,0,0-.43-.156.6.6,0,0,0-.444.161.574.574,0,0,0-.161.425l.283,9.766a.59.59,0,0,0,.171.42A.6.6,0,0,0-13.174-.205Zm2.734,0A.633.633,0,0,0-10-.361a.541.541,0,0,0,.171-.42v-9.775A.545.545,0,0,0-10-10.972a.621.621,0,0,0-.444-.161.639.639,0,0,0-.449.161.538.538,0,0,0-.176.415V-.781a.534.534,0,0,0,.176.42A.651.651,0,0,0-10.439-.205Zm2.725,0A.6.6,0,0,0-7.28-.361a.578.578,0,0,0,.171-.41l.283-9.775a.574.574,0,0,0-.161-.425.6.6,0,0,0-.444-.161.6.6,0,0,0-.43.156.592.592,0,0,0-.176.43L-8.32-.781a.553.553,0,0,0,.166.415A.6.6,0,0,0-7.715-.205ZM-14.57-13.623h1.592v-1.953a.771.771,0,0,1,.244-.6A.9.9,0,0,1-12.1-16.4h3.291a.9.9,0,0,1,.64.225.779.779,0,0,1,.239.6v1.953h1.6v-2.031a2.105,2.105,0,0,0-.63-1.621A2.46,2.46,0,0,0-8.7-17.861h-3.506a2.446,2.446,0,0,0-1.733.586,2.105,2.105,0,0,0-.63,1.621Z" transform="translate(19.473 17.861)" fill="#adadad"/></svg>