<svg xmlns="http://www.w3.org/2000/svg" width="26.746" height="22.864" viewBox="0 0 26.746 22.864"><path d="M-13.544-17.944a.931.931,0,0,0,.293.69.933.933,0,0,0,.671.287h3.772L-7-4.5a3.647,3.647,0,0,0,.885,2,2.594,2.594,0,0,0,1.984.732H9.32a.923.923,0,0,0,.659-.269.9.9,0,0,0,.281-.684.9.9,0,0,0-.281-.684.923.923,0,0,0-.659-.269H-3.9a.969.969,0,0,1-.732-.293,1.382,1.382,0,0,1-.354-.769L-5.17-5.945H9.381a2.6,2.6,0,0,0,2-.739,3.694,3.694,0,0,0,.885-2.02l.891-5.945q.012-.11.031-.244a1.692,1.692,0,0,0,.018-.22.959.959,0,0,0-.311-.739,1.2,1.2,0,0,0-.848-.287H-6.635L-6.842-17.5A1.925,1.925,0,0,0-7.3-18.573a1.757,1.757,0,0,0-1.276-.36h-4a.924.924,0,0,0-.671.293A.951.951,0,0,0-13.544-17.944ZM-5.157,1.99A1.871,1.871,0,0,0-4.59,3.363a1.871,1.871,0,0,0,1.373.568,1.879,1.879,0,0,0,1.392-.568A1.881,1.881,0,0,0-1.263,1.99,1.881,1.881,0,0,0-1.825.616,1.879,1.879,0,0,0-3.217.049,1.871,1.871,0,0,0-4.59.616,1.871,1.871,0,0,0-5.157,1.99Zm10.73,0a1.851,1.851,0,0,0,.58,1.373,1.911,1.911,0,0,0,1.385.568,1.871,1.871,0,0,0,1.373-.568A1.871,1.871,0,0,0,9.479,1.99,1.871,1.871,0,0,0,8.911.616,1.871,1.871,0,0,0,7.538.049,1.911,1.911,0,0,0,6.152.616,1.851,1.851,0,0,0,5.573,1.99Z" transform="translate(13.544 18.933)" fill="#fff"/></svg>