<?xml version="1.0" encoding="utf-8"?>
<!-- Generator: Adobe Illustrator 27.5.0, SVG Export Plug-In . SVG Version: 6.00 Build 0)  -->
<svg version="1.1" id="レイヤー_1" xmlns="http://www.w3.org/2000/svg" xmlns:xlink="http://www.w3.org/1999/xlink" x="0px"
	 y="0px" viewBox="0 0 25 25" style="enable-background:new 0 0 25 25;" xml:space="preserve">
<style type="text/css">
	.st0{fill:#F0A10C;}
</style>
<path class="st0" d="M12.5,24.4c1.6,0,3.1-0.3,4.6-0.9c1.4-0.6,2.7-1.5,3.8-2.6c1.1-1.1,2-2.4,2.6-3.8c0.6-1.4,0.9-3,0.9-4.6
	c0-1.6-0.3-3.1-0.9-4.6c-0.6-1.4-1.5-2.7-2.6-3.8c-1.1-1.1-2.4-2-3.8-2.6c-1.4-0.6-3-0.9-4.6-0.9c-1.6,0-3.1,0.3-4.6,0.9
	C6.5,2.2,5.2,3,4.1,4.1C3,5.2,2.2,6.5,1.6,7.9c-0.6,1.4-0.9,3-0.9,4.6c0,1.6,0.3,3.1,0.9,4.6c0.6,1.4,1.5,2.7,2.6,3.8
	c1.1,1.1,2.4,2,3.8,2.6C9.4,24.1,10.9,24.4,12.5,24.4z M12.5,22.2c-1.3,0-2.6-0.2-3.8-0.8c-1.2-0.5-2.2-1.2-3.1-2.1
	c-0.9-0.9-1.6-1.9-2.1-3.1c-0.5-1.2-0.8-2.5-0.7-3.8c0-1.3,0.2-2.6,0.7-3.8c0.5-1.2,1.2-2.2,2.1-3.1C6.5,4.7,7.6,4,8.7,3.6
	c1.2-0.5,2.5-0.8,3.8-0.7c1.3,0,2.6,0.2,3.8,0.7c1.2,0.5,2.2,1.2,3.1,2.1c0.9,0.9,1.6,1.9,2.1,3.1c0.5,1.2,0.8,2.5,0.8,3.8
	c0,1.3-0.2,2.6-0.7,3.8c-0.5,1.2-1.2,2.2-2.1,3.1c-0.9,0.9-1.9,1.6-3.1,2.1C15.1,21.9,13.8,22.2,12.5,22.2z M10.5,18.8h4.7
	c0.2,0,0.5-0.1,0.6-0.2c0.2-0.2,0.3-0.4,0.3-0.6c0-0.2-0.1-0.5-0.3-0.6c-0.2-0.2-0.4-0.2-0.6-0.2h-1.4v-5.7c0-0.3-0.1-0.6-0.2-0.8
	c-0.2-0.2-0.4-0.3-0.7-0.3h-2.2c-0.2,0-0.5,0.1-0.6,0.2c-0.2,0.2-0.3,0.4-0.3,0.6c0,0.2,0.1,0.5,0.3,0.6c0.2,0.2,0.4,0.3,0.6,0.2
	h1.2v5.1h-1.4c-0.2,0-0.5,0.1-0.6,0.2c-0.2,0.2-0.3,0.4-0.3,0.6c0,0.2,0.1,0.5,0.3,0.6C10,18.7,10.2,18.8,10.5,18.8z M12.4,8.5
	c0.4,0,0.8-0.2,1.1-0.5c0.3-0.3,0.4-0.7,0.4-1.1c0-0.4-0.2-0.8-0.4-1.1c-0.3-0.3-0.7-0.5-1.1-0.5c-0.4,0-0.8,0.2-1.1,0.5
	c-0.3,0.3-0.5,0.7-0.4,1.1c0,0.4,0.2,0.8,0.4,1.1C11.6,8.3,12,8.5,12.4,8.5z"/>
</svg>
