<svg xmlns="http://www.w3.org/2000/svg" viewBox="0 0 400 747"><defs><style>.cls-1{opacity:0.1;}.cls-2{fill:#fff;}.cls-3{fill:none;}</style></defs><g id="レイヤー_2" data-name="レイヤー 2"><g id="レイヤー_1-2" data-name="レイヤー 1"><g id="レイヤー_1-2-2" data-name="レイヤー 1-2"><g class="cls-1"><path class="cls-2" d="M244.6,75.45a141.53,141.53,0,1,0,1.21,1.21ZM236,267a129.33,129.33,0,1,1,0-182.9A129.32,129.32,0,0,1,236,267Z"/><path class="cls-2" d="M144.53,59.36A116.14,116.14,0,0,0,77.12,270.09h.07A116.15,116.15,0,1,0,144.53,59.36ZM246.63,195h-96V180h61.94V144.63h31.21A104.22,104.22,0,0,1,246.63,195Zm-47.11,41.3v27.4a103.56,103.56,0,0,1-28.58,12.37V236.31Zm-48.88-12.23V207.24h92.88a103.77,103.77,0,0,1-7.11,16.84ZM117.92,236.3V276a103.34,103.34,0,0,1-28.58-12.45V236.31ZM52.65,224.08a102,102,0,0,1-7.11-16.84h92.88v16.84ZM88.7,144.63h49.72v23.11H88.7ZM200.36,132.4H150.64V109.3h49.72Zm-61.94,0H88.7V109.3h49.72Zm12.22,12.23h49.72v23.11H150.64Zm-6.11-73A104.1,104.1,0,0,1,239.1,132.4H212.58V97.07H76.47V132.4H50a104.07,104.07,0,0,1,94.53-60.82Zm-99.26,73h31.2V180h61.95v15h-96a104,104,0,0,1,2.85-50.38Zm15,91.68H77.12v18.27a104.72,104.72,0,0,1-16.86-18.27Zm69.88,42.16V236.31h28.58V278.5a104.41,104.41,0,0,1-28.58,0Zm81.6-23.72V236.31H228.8a105.06,105.06,0,0,1-17.06,18.44Z"/></g></g><g id="レイヤー_1-2-3" data-name="レイヤー 1-2"><g class="cls-1"><path class="cls-2" d="M352.6,429.45a141.53,141.53,0,1,0,1.21,1.21C353.41,430.25,353,429.85,352.6,429.45ZM344,621a129.33,129.33,0,1,1,0-182.9A129.32,129.32,0,0,1,344,621Z"/><path class="cls-2" d="M252.53,413.36a116.14,116.14,0,0,0-67.41,210.73h.07a116.15,116.15,0,1,0,67.34-210.73ZM354.63,549h-96V534h61.94V498.63h31.21A104.22,104.22,0,0,1,354.63,549Zm-47.11,41.3v27.4a103.56,103.56,0,0,1-28.58,12.37V590.31Zm-48.88-12.23V561.24h92.88a103.77,103.77,0,0,1-7.11,16.84ZM225.92,590.3V630a103.34,103.34,0,0,1-28.58-12.45V590.31Zm-65.27-12.22a102,102,0,0,1-7.11-16.84h92.88v16.84Zm36-79.45h49.72v23.11H196.7ZM308.36,486.4H258.64V463.3h49.72Zm-61.94,0H196.7V463.3h49.72Zm12.22,12.23h49.72v23.11H258.64Zm-6.11-73A104.1,104.1,0,0,1,347.1,486.4H320.58V451.07H184.47V486.4H158a104.07,104.07,0,0,1,94.53-60.82Zm-99.26,73h31.2V534h61.95v15h-96a104,104,0,0,1,2.85-50.38Zm15,91.68h16.85v18.27a104.33,104.33,0,0,1-16.86-18.27Zm69.88,42.16V590.31h28.58V632.5a104.41,104.41,0,0,1-28.58,0Zm81.6-23.72V590.31H336.8a105.06,105.06,0,0,1-17.06,18.44Z"/></g></g><rect class="cls-3" width="400" height="747"/></g></g></svg>