<svg xmlns="http://www.w3.org/2000/svg" viewBox="0 0 486.16 486.16"><defs><style>.cls-1{fill:#fff;}</style></defs><g id="レイヤー_2" data-name="レイヤー 2"><g id="レイヤー_1-2" data-name="レイヤー 1"><path class="cls-1" d="M415,71.2A243.08,243.08,0,1,0,71.2,415,243.08,243.08,0,0,0,415,71.2ZM400.12,400.12A222.08,222.08,0,1,1,86.05,86.05,222.08,222.08,0,0,1,400.12,400.12Z"/><path class="cls-1" d="M243.08,43.55c-110,0-199.53,89.51-199.53,199.53A199.42,199.42,0,0,0,127.3,405.49v.09h.12a198.4,198.4,0,0,0,115.66,37c110,0,199.53-89.51,199.53-199.53S353.1,43.55,243.08,43.55Zm175.37,233H253.58V250.7H360V190h53.59a178.91,178.91,0,0,1,4.89,86.54Zm-80.92,70.93v47a177.39,177.39,0,0,1-49.08,21.24V347.48Zm-83.95-21V297.55H413.1a176.7,176.7,0,0,1-12.21,28.93Zm-56.21,21v68.19A177.22,177.22,0,0,1,148.3,394.3V347.48Zm-112.1-21a177.57,177.57,0,0,1-12.21-28.93H232.58v28.93ZM147.19,190h85.39V229.7H147.19ZM339,169H253.58V129.33H339Zm-106.39,0H147.19V129.33h85.39Zm21,21H339V229.7H253.58ZM243.08,64.55c72,0,134.23,42.88,162.43,104.46H360V108.33H126.19V169H80.66C108.85,107.43,171.05,64.55,243.08,64.55ZM72.6,190h53.59V250.7H232.58v25.85H67.71A178.91,178.91,0,0,1,72.6,190ZM98.35,347.48h29v31.38A179.91,179.91,0,0,1,98.35,347.48Zm120,72.41V347.48h49.08v72.46a178.5,178.5,0,0,1-49.08-.05Zm140.16-40.75V347.48h29.29A180.28,180.28,0,0,1,358.53,379.14Z"/></g></g></svg>