<svg xmlns="http://www.w3.org/2000/svg" viewBox="0 0 283.06 283.06"><defs><style>.cls-1{opacity:0.1;}.cls-2{fill:#fff;}</style></defs><g id="レイヤー_2" data-name="レイヤー 2"><g id="レイヤー_1-2" data-name="レイヤー 1"><g class="cls-1"><path class="cls-2" d="M241.6,41.45A141.53,141.53,0,0,0,41.45,241.6,141.53,141.53,0,1,0,241.6,41.45ZM233,233A129.3,129.3,0,0,1,50.1,50.1,129.3,129.3,0,0,1,233,233Z"/><path class="cls-2" d="M141.53,25.36A116.14,116.14,0,0,0,74.12,236.09v0h.07A116.15,116.15,0,1,0,141.53,25.36ZM243.63,161h-96V146h61.94V110.63h31.21A104.23,104.23,0,0,1,243.63,161Zm-47.11,41.3V229.7a103.57,103.57,0,0,1-28.58,12.37V202.31Zm-48.88-12.23V173.24h92.88a103.07,103.07,0,0,1-7.11,16.84Zm-32.72,12.23V242a103.33,103.33,0,0,1-28.58-12.45V202.31ZM49.65,190.08a102.2,102.2,0,0,1-7.11-16.84h92.88v16.84ZM85.7,110.63h49.72v23.11H85.7ZM197.36,98.4H147.64V75.3h49.72Zm-61.94,0H85.7V75.3h49.72Zm12.22,12.23h49.72v23.11H147.64Zm-6.11-73A104.1,104.1,0,0,1,236.1,98.4H209.58V63.07H73.47V98.4H47A104.09,104.09,0,0,1,141.53,37.58ZM42.27,110.63h31.2V146h61.95v15h-96a104.1,104.1,0,0,1,2.85-50.38Zm15,91.68H74.12v18.27A104.75,104.75,0,0,1,57.26,202.31Zm69.88,42.16V202.31h28.58V244.5a104.16,104.16,0,0,1-28.58,0Zm81.6-23.72V202.31H225.8A105.06,105.06,0,0,1,208.74,220.75Z"/></g></g></g></svg>