<svg xmlns="http://www.w3.org/2000/svg" viewBox="0 0 561.71 146.13"><defs><style>.cls-1{fill:#b71c25;}.cls-2{fill:#fff;}.cls-3{fill:none;}</style></defs><g id="レイヤー_2" data-name="レイヤー 2"><g id="レイヤー_1-2" data-name="レイヤー 1"><rect class="cls-1" x="76.55" y="41.75" width="24.67" height="12.28"/><rect class="cls-1" x="48.15" y="57.73" width="24.67" height="12.28"/><path class="cls-2" d="M121.25,26.59a65.73,65.73,0,1,0-93,93,65.73,65.73,0,1,0,93-92.95Zm-4,88.94A60.05,60.05,0,1,1,32.3,30.6a60.05,60.05,0,1,1,84.93,84.93Z"/><path class="cls-2" d="M74.77,19.11A53.94,53.94,0,0,0,43.46,117v0h0a53.95,53.95,0,1,0,31.28-97.9Zm47.42,63H77.61v-7h28.76V58.71h14.5a48.56,48.56,0,0,1,1.32,23.4ZM100.31,101.3V114A47.92,47.92,0,0,1,87,119.76V101.3Zm-22.7-5.68V87.79h43.13a47.84,47.84,0,0,1-3.3,7.83Zm-15.2,5.68v18.44A48,48,0,0,1,49.14,114V101.3ZM32.09,95.62a47.84,47.84,0,0,1-3.3-7.83H71.93v7.83ZM48.84,58.71H71.93V69.45H48.84ZM100.7,53H77.61V42.3H100.7ZM71.93,53H48.84V42.3H71.93Zm5.68,5.67H100.7V69.45H77.61ZM74.77,24.79A48.33,48.33,0,0,1,118.69,53H106.37V36.63H43.16V53H30.84A48.35,48.35,0,0,1,74.77,24.79ZM28.67,58.71H43.16V75.12H71.93v7H27.34a49,49,0,0,1-.85-9A48,48,0,0,1,28.67,58.71Zm7,42.59h7.83v8.48A48.08,48.08,0,0,1,35.63,101.3Zm32.46,19.58V101.3H81.36v19.59a47.88,47.88,0,0,1-6.59.45A49,49,0,0,1,68.09,120.88Zm37.89-11V101.3h7.92A48.7,48.7,0,0,1,106,109.86Z"/><path class="cls-2" d="M226.3,23.61a2.94,2.94,0,0,1-1.76.87v29a4.33,4.33,0,0,1-2.74,1.1h-.5v-3H203.87v2c0,.46-1.18,1.26-2.63,1.26h-.54V21.2l3.4,1.53h16.78l1.72-2Zm-22.43.19v8H221.3v-8Zm0,9.11V41H221.3V32.91ZM221.3,50.42V42.15H203.87v8.27Z"/><path class="cls-2" d="M264.41,41.61s2.33,1.79,3.78,3.09a1,1,0,0,1-1,.61H233.62l-.3-1.1h15.6V40.12H237.29L237,39h11.94v-4.2h-8v1.11c0,.34-1.34,1-2.63,1h-.46V20.55L241.18,22h18.58l1.52-1.72,3.4,2.59a2.53,2.53,0,0,1-1.49.69V35.24a4.3,4.3,0,0,1-2.59.92h-.5V34.82H252V39h7.44l1.91-2.44s2.21,1.71,3.58,2.93a1,1,0,0,1-1,.61H252v4.09h10.34Zm-24.87,4.81c1,4.39-1.11,7.09-2.9,8-1.18.65-2.71.57-3.13-.5s.27-1.79,1.22-2.29a7,7,0,0,0,4.2-5.3ZM241,23.11v4.77h8V23.11Zm8,10.64V29h-8v4.77Zm-4.39,12.9c6.68,4.46,3.44,9.76,1,7.13a21.16,21.16,0,0,0-1.41-7Zm7.18,0c8.58,3.39,6,9.57,3,7.24a19.93,19.93,0,0,0-3.47-7Zm.3-23.54v4.77h8.09V23.11Zm8.09,10.64V29H252v4.77Zm-.84,12.74c11.1,2.67,9.31,9.92,5.87,7.9-.87-2.59-3.81-5.8-6.21-7.55Z"/><path class="cls-2" d="M206.77,83a7.73,7.73,0,0,1,4.59-1.62c2.14,0,4.18.47,4.44,2s.52,3.54,1,5.47c1.35-.41,2.5-.83,3.39-1.2,2.76-1,3.86-2.08,4.43-2.08,1.46-.06,3.08.26,3.13,1.56a2.39,2.39,0,0,1-1.25,1.72c-1,.73-4.44,2.14-8.61,3.29a40.61,40.61,0,0,0,2.61,6.2c1.2-.36,2.35-.78,3.39-1.19,4-1.52,4.75-2.4,5.48-2.4,1.51-.16,3.07.26,3,1.56,0,.63-.31,1.2-1.25,1.88a37.7,37.7,0,0,1-8.76,3.49c4.07,6.52,7.09,7.93,7.09,9.49,0,1.88-1,4.18-2.45,4.18s-2.19-1.05-4.54-2.3a24.35,24.35,0,0,0-10.22-2.34c-5.48,0-9.34,2.34-9.34,5.63,0,4.54,6.21,5.27,11,5.27,4.17,0,5.32-.68,7.66-.63,1.57,0,2.87.73,2.87,2,0,1.88-3.81,2.71-10.22,2.71-7,0-14.24-2.5-14.24-8.45,0-4.38,4.38-8.5,13.4-8.5a43.18,43.18,0,0,1,10.49,1.41c.68.21.73.05.41-.47a77.76,77.76,0,0,1-4.74-7.2A57.12,57.12,0,0,1,206.72,104c-7.3,0-9.65-4.8-3.75-8.87l.83.73c-2.92,2.87-2.19,4.85,3.23,4.85a40.74,40.74,0,0,0,10.75-1.51c-.94-1.88-1.88-4.07-2.77-6.31a43.54,43.54,0,0,1-8,1c-4,0-6.83-.68-9.39-5.37l.68-.52a11.56,11.56,0,0,0,8.24,2.81,37.34,37.34,0,0,0,7.25-1.09c-.52-1.25-.94-2.51-1.41-3.76a2.51,2.51,0,0,0-2.5-1.93,27.14,27.14,0,0,0-2.92-.15Zm20.92-.52A20.28,20.28,0,0,1,234,86c1.25,1.15,1.72,2.09,1.66,3.13a1.37,1.37,0,0,1-1.4,1.51c-.84,0-1.41-1.09-2.4-2.4a25.6,25.6,0,0,0-4.75-4.8Zm4.59-3a19.37,19.37,0,0,1,6.2,2.87c1.41,1.15,1.93,2.14,1.93,3.23,0,.94-.47,1.47-1.35,1.47s-1.46-1-2.56-2.35a22.36,22.36,0,0,0-4.8-4.38Z"/><path class="cls-2" d="M269.93,115.27a23.92,23.92,0,0,1,5.73,1.88c2.77,1.3,5.9,3.44,5.9,5.79a1.47,1.47,0,0,1-1.57,1.61c-1.61,0-3-2.55-6.83-4.74a17.58,17.58,0,0,0-2.82-1.31,9.85,9.85,0,0,1,.11,1.41c0,3.24-2,5.9-7.77,5.9-4.28,0-7.41-1.88-7.41-5.06,0-4.07,4.69-6,10-6,.63,0,1.26,0,1.88,0-.1-3.13-.36-6.93-.47-9.33s-.1-7.72-.26-8.66a1.47,1.47,0,0,0-1-1.41,10.36,10.36,0,0,0-2.92-.68l-.1-.62A9,9,0,0,1,266,93.1c2.45,0,5.22,1.67,5.22,2.93,0,1-.63,1.3-.94,2.45a28.88,28.88,0,0,0-.57,4h.62a17.69,17.69,0,0,0,5-.94,24.35,24.35,0,0,1,2.45-1c1.56,0,3.13.47,3.13,1.88,0,.68-.42,1.2-1.52,1.67a24.76,24.76,0,0,1-6.62,1.09,7.63,7.63,0,0,1-3.18-1c0,.78-.05,1.51-.05,2.09,0,1.88.21,6,.47,9Zm-2.72,2.35a18.48,18.48,0,0,0-3.91-.37c-3.75,0-6.2,1.46-6.2,3.13,0,1.41,1.56,2.35,4.12,2.35C265.6,122.73,267.16,121.16,267.21,117.62Z"/><path class="cls-2" d="M306.43,95.45c.73,1.93,1.77,3.24,3,3.24,2.5,0,9.13-4.12,14.71-4.12,5.74,0,9.49,4.43,9.49,11.52,0,11.74-9.07,18.15-23.73,20.24l-.36-1.2c12.56-3.18,19.61-9.34,19.61-19.66,0-5.48-2.19-8.66-5.43-8.66s-8.08,3.18-10.12,4.69c-1.09.84-2.19,2-3.54,2-1.88,0-4-2.25-4.54-3.81a7.51,7.51,0,0,1,0-4Zm3.86-14.24.57-.73a16.12,16.12,0,0,0,9.75,2.87c1.83,0,3.5-.47,4.39-.47,2.08,0,4.58,1.1,4.58,2.66,0,.78-.67,1.31-2,1.31a21.72,21.72,0,0,0-4.07.52,95.87,95.87,0,0,0-9.8,3.44l-.47-.94c2.19-1.25,4.69-2.66,6.15-3.65C317.54,85.91,313.21,85.39,310.29,81.21Z"/><path class="cls-2" d="M362.59,84.71a10.74,10.74,0,0,1,4.8-1.57c2.24,0,4.38.73,4.64,1.78a46.42,46.42,0,0,0,2.66,7.3c5.63-2.14,7.2-4.12,8.61-4.75a3.59,3.59,0,0,1,3.28.52,1.81,1.81,0,0,1-.52,2.45c-1.56,1.36-5.42,3.45-9.65,5a55.52,55.52,0,0,0,9.08,10.9c1.25,1.2,1.67,1.78,1.72,2.77.05,1.56-.78,3.8-2.14,3.8s-2.09-.83-3.6-1.77a24.6,24.6,0,0,0-12.72-3.6c-5.74,0-10,3.13-10,7.3,0,3.81,4.33,6.47,12.26,6.47,3.86,0,5.74-.57,7.61-.57s3.19.67,3.19,2.08c0,1.57-2.56,2.71-9.39,2.71-9.08,0-16.74-3.07-16.74-10,0-5.68,6.1-10,14.18-10a38.7,38.7,0,0,1,11.06,1.67c.57.1.68,0,.26-.42a94.33,94.33,0,0,1-7.72-10.38,47.25,47.25,0,0,1-11.06,2c-5.42,0-7.3-1.93-10-6.31l.89-.78c3.23,2.61,4.9,3.65,8.86,3.6a39.24,39.24,0,0,0,9.5-1.62,68.71,68.71,0,0,0-3.45-6.2c-.88-1.36-2.4-1.36-5.37-1.41Zm22-2.24a20.62,20.62,0,0,1,6.31,3.44A4.26,4.26,0,0,1,392.53,89a1.38,1.38,0,0,1-1.46,1.51c-.78,0-1.41-1.1-2.4-2.4a23.6,23.6,0,0,0-4.75-4.8ZM389,79.34a19.21,19.21,0,0,1,6.21,2.81c1.41,1.15,1.93,2.14,1.93,3.24s-.47,1.51-1.36,1.51-1.45-1.1-2.55-2.4a21.86,21.86,0,0,0-4.8-4.33Z"/><path class="cls-2" d="M495.47,119.91s3.18,2.4,5.06,4.12a1.25,1.25,0,0,1-1.36.84H453.49l-.42-1.52h21.17V110.21H459l-.41-1.46h15.64V98.69H458.6l-.37-1.52h30.09L490.88,94s2.92,2.19,4.69,3.81a1.24,1.24,0,0,1-1.35.84h-15.7v10.06h9.7l2.56-3.28s3,2.29,4.85,4a1.28,1.28,0,0,1-1.36.78H478.52v13.14h14.29ZM460.16,88.25c.16,3.55-1.2,6-2.71,7s-3.49,1-4.17-.42c-.52-1.31.21-2.51,1.46-3.24a8.67,8.67,0,0,0,3.7-7.87l.83,0a19.65,19.65,0,0,1,.79,3H474.3V78.87l6.15.57c-.1.73-.57,1.25-1.88,1.41v5.89h15L496,84.19l4.44,4.27c-.37.42-.89.52-1.93.58a36.52,36.52,0,0,1-6.42,5.47l-.63-.31c.68-1.62,1.62-4,2.25-6Zm22.9,23.94c12.25,2.4,9,10.85,4.8,7.93-.58-2.66-3.13-5.74-5.27-7.51Z"/><path class="cls-2" d="M548.35,114.23a55.41,55.41,0,0,1,4.33,3.91,1.19,1.19,0,0,1-1.31.83h-8.6v6.78c0,.47-1.72,1.26-3.24,1.26h-.78v-8H525l-.41-1.56h5.52v-7.72h-2.34l-.21-.78a4.22,4.22,0,0,1-1.25.15c-3.44,8.14-9.91,14.66-20.86,18.1l-.37-.83a32.88,32.88,0,0,0,11.63-8.3,2.4,2.4,0,0,1-1.77-.46,12.59,12.59,0,0,0-3.24-4.91,28.89,28.89,0,0,1-6.25,3.91L505,116a32.92,32.92,0,0,0,10.32-13.41h-8.92L505.9,101h8V94.2h-8.4l-.37-1.46h8.77V87.47a34.12,34.12,0,0,1-6.42,4.38l-.57-.62a35.2,35.2,0,0,0,9-12.52l5.94,1.83c-.2.52-.62.78-1.87.62a30.49,30.49,0,0,1-3,3.5h25.82l2.66-3.39s2.92,2.39,4.74,4.06c-.15.58-.62.84-1.35.84h-5.37v6.57h2.6l2.35-3.44a56.25,56.25,0,0,1,4.28,4.12c-.11.57-.63.78-1.31.78h-7.92V101h1.82l2.4-3.23s2.87,2.24,4.54,3.91c-.16.57-.58.83-1.31.83H515.75l5.17,1.36c-.16.52-.58.68-1.88.63a25.77,25.77,0,0,1-1.83,2.6h5l2.35-2.24,3.65,3.29h10.53v-5.32l5.74.57c-.1.68-.57,1.1-1.72,1.31v3.44h1.77l2.19-3.08s2.56,2.19,4.07,3.76c-.16.57-.63.83-1.36.83h-6.67v7.72h3.28Zm-32.44-5.58a32.4,32.4,0,0,1-3.23,3.18c4.12,1.09,5.47,3.08,5.37,4.54a27.32,27.32,0,0,0,4.17-7.72Zm1.88-15.91h4.64V86.17h-4.64Zm0,8.29h4.64V94.2h-4.64ZM531,92.74V86.17h-4.8v6.57Zm-4.8,1.46V101H531V94.2Zm12.52,23.21v-7.72h-5v7.72Zm.84-31.24h-4.8v6.57h4.8Zm0,8h-4.8V101h4.8Z"/><rect class="cls-3" width="561.71" height="146.13"/></g></g></svg>