<?xml version="1.0" encoding="utf-8"?>
<!-- Generator: Adobe Illustrator 25.2.3, SVG Export Plug-In . SVG Version: 6.00 Build 0)  -->
<svg version="1.1" id="レイヤー_1" xmlns="http://www.w3.org/2000/svg" xmlns:xlink="http://www.w3.org/1999/xlink" x="0px"
	 y="0px" viewBox="0 0 126.4 16.1" style="enable-background:new 0 0 126.4 16.1;" xml:space="preserve">
<style type="text/css">
	.st0{fill:none;}
	.st1{fill:#FF5F00;}
	.st2{fill:#EB001B;}
	.st3{fill:#F79E1B;}
	.st4{clip-path:url(#SVGID_2_);}
	.st5{fill:url(#SVGID_3_);}
	.st6{fill:#009FE8;}
</style>
<g>
	<rect class="st0" width="126.4" height="16.1"/>
	<g id="レイヤー_2_1_">
		<g id="レイヤー_1-2">
			<rect x="56.4" y="2.2" class="st1" width="6.4" height="11.6"/>
			<path class="st2" d="M56.8,7.9c0-2.3,1-4.4,2.8-5.8c-3.2-2.5-7.8-2-10.3,1.2s-2,7.8,1.2,10.3c1.3,1,2.9,1.6,4.6,1.6
				c1.7,0,3.3-0.6,4.5-1.6C57.8,12.3,56.8,10.2,56.8,7.9z"/>
			<path class="st3" d="M71.5,7.9c0,4.1-3.3,7.4-7.4,7.4c-1.7,0-3.3-0.6-4.6-1.6c3.2-2.5,3.7-7.2,1.2-10.3c-0.4-0.5-0.8-0.9-1.2-1.2
				c3.2-2.5,7.8-2,10.3,1.2C71,4.7,71.5,6.3,71.5,7.9z M71,12.8v-0.5h0.2v-0.1h-0.5v0.1h0.2v0.5H71z M72,12.8v-0.6h-0.2l-0.2,0.4
				l-0.2-0.4h-0.2v0.6h0.1v-0.4l0.2,0.4h0.1l0.2-0.4v0.4H72z"/>
			<g>
				<defs>
					<path id="SVGID_1_" d="M12.6,1.7l-3.5,8.8L7.7,3.1C7.6,2.3,7,1.7,6.2,1.7H0.5L0.4,2.1c1.1,0.2,2.3,0.6,3.3,1.1
						c0.4,0.2,0.7,0.6,0.8,1.1l2.7,10.4h3.5l5.4-13L12.6,1.7z M17.6,1.7l-2.8,13h3.3l2.8-13H17.6z M36.9,5.2l1,4.9h-2.8L36.9,5.2z
						 M36.4,1.7c-0.6,0-1.2,0.4-1.4,1l-5,12h3.4l0.7-1.9h4.3l0.4,1.9h3.1l-2.7-13L36.4,1.7z M21.9,5.8c0,1.9,1.7,2.9,2.9,3.5
						s1.8,1,1.7,1.6c0,0.9-1,1.2-2,1.3c-1.2,0-2.4-0.3-3.4-0.8l-0.6,2.8c1.2,0.5,2.5,0.7,3.7,0.7c3.5,0,5.8-1.7,5.8-4.4
						c0-3.4-4.7-3.6-4.7-5.1c0-0.5,0.5-1,1.4-1.1c1.1-0.1,2.3,0.1,3.3,0.6l0.6-2.8c-1-0.4-2.1-0.6-3.1-0.6
						C24.2,1.5,21.9,3.3,21.9,5.8"/>
				</defs>
				<clipPath id="SVGID_2_">
					<use xlink:href="#SVGID_1_"  style="overflow:visible;"/>
				</clipPath>
				<g class="st4">
					
						<linearGradient id="SVGID_3_" gradientUnits="userSpaceOnUse" x1="-701.5308" y1="63.1835" x2="-700.9307" y2="63.1835" gradientTransform="matrix(58.3574 -21.4945 21.4945 58.3574 39584.2969 -18751.332)">
						<stop  offset="0" style="stop-color:#252259"/>
						<stop  offset="1" style="stop-color:#29398E"/>
					</linearGradient>
					<polygon class="st5" points="-4,3.1 37,-12 46.3,13.3 5.3,28.4 					"/>
				</g>
			</g>
			<g id="レイヤー_2-2">
				<g id="レイヤー_1-2-2">
					<path class="st6" d="M101.8,7.1V5.8c0-0.5-0.5-1-1-1h-1.4v2.3h-1.5V0.6h3.7c0.9-0.1,1.7,0.5,1.9,1.4v0.5c0,0.6-0.3,1.2-0.9,1.5
						c0.5,0.3,0.8,0.9,0.7,1.5v1.6H101.8 M99.3,3.3h1.6c0.3,0.1,0.7-0.1,0.8-0.4c0.1-0.3-0.1-0.7-0.4-0.8h-2L99.3,3.3 M120.4,7.1
						L118,2.7v4.4h-3l-0.5-1.4h-2.8l-0.5,1.4h-3.2c0,0-2-0.3-2-3.1c0-3.4,1.7-3.5,2.4-3.5h1.9V2h-1.4c-0.7,0.1-1.2,0.7-1.1,1.4v0.6
						c0,2.2,2.6,1.5,2.7,1.5l1.9-4.9h2.1l2.2,5.9V0.6h2.1l2.4,4.3V0.6h1.5v6.5L120.4,7.1 M112.5,4.1h1.5l-0.7-1.9L112.5,4.1 M90,7.1
						V2.6l-1.9,4.5h-1.2L85,2.6v4.5h-3l-0.5-1.4h-2.7l-0.5,1.4h-1.7l2.5-6.5h2.1l2.3,5.9V0.6h2.4l1.7,4.1l1.7-4.1h2.4v6.5L90,7.1
						 M79.4,4.1h1.5l-0.7-1.8L79.4,4.1 M92.4,7.1V0.6H97v1.5h-3.2v1h3.1v1.5h-3.1v1.1H97v1.4L92.4,7.1 M104.1,7.2V0.6h1.5v6.5H104.1
						 M107.3,15.5v-1.3c0-0.6-0.4-1-1-1h-1.7v2.3h-1.6V9h3.9c0.9-0.2,1.8,0.3,2,1.2c0,0,0,0,0,0c0,0,0,0,0,0.1c0,0.1,0,0.1,0,0.2
						v0.4c0,0.6-0.3,1.2-0.9,1.5c0.5,0.3,0.8,0.9,0.8,1.5v1.6H107.3 M104.8,11.8h1.6c0.3,0.1,0.7,0,0.8-0.3s0-0.7-0.3-0.8h-0.1l0,0
						c-0.1-0.1-0.3-0.1-0.4,0h-1.7L104.8,11.8 M96.7,15.6h-1.3l-1.6-1.9L92,15.5h-6V9h5.8l1.8,2.1L95.6,9h5c0.9-0.2,1.8,0.4,2,1.4
						c0,0,0,0,0,0v0.5c0,1.9-0.7,2.5-2.8,2.5h-1.6v2.1L96.7,15.6 M94.7,12.4l2,2.3v-4.5L94.7,12.4 M87.6,14.1h3.4l1.6-1.8l-1.6-1.8
						h-3.3v1h3.3V13h-3.3L87.6,14.1 M98.3,11.7h1.7c0.3,0.1,0.7-0.1,0.7-0.5c0.1-0.3-0.1-0.6-0.4-0.7l0,0c-0.1-0.1-0.3-0.1-0.4,0
						h-1.7V11.7 M118.2,15.5h-2.8V14h2.5c0,0,0.9,0.1,0.9-0.5s-1.4-0.5-1.4-0.5c-1,0.2-2-0.6-2.2-1.6c0,0,0,0,0,0v-0.3
						c-0.1-1,0.7-1.9,1.7-2h3.4v1.4h-2.5c0,0-0.9-0.2-0.9,0.5c0,0.5,1.2,0.5,1.2,0.5s2.5-0.2,2.5,1.8c0.1,1.1-0.7,2.1-1.8,2.3h-0.4
						L118.2,15.5 M109.7,15.5V9h5v1.5h-3.4v1h3.3V13h-3.3v1.1h3.4v1.4L109.7,15.5 M123.8,15.5h-2.9V14h2.5c0,0,0.9,0.1,0.9-0.5
						s-1.4-0.5-1.4-0.5c-1,0.1-2-0.6-2.2-1.6V11c-0.1-1,0.7-1.9,1.7-2h3.3v1.5h-2.5c0,0-0.9-0.2-0.9,0.5c0,0.5,1.2,0.5,1.2,0.5
						s2.5-0.2,2.5,1.8c0.1,1.1-0.7,2.1-1.8,2.3L123.8,15.5C123.8,15.5,123.8,15.5,123.8,15.5"/>
				</g>
			</g>
		</g>
	</g>
</g>
</svg>
